<?xml version="1.0" standalone="no"?>
<!DOCTYPE svg PUBLIC "-//W3C//DTD SVG 1.1//EN" "http://www.w3.org/Graphics/SVG/1.1/DTD/svg11.dtd" >
<svg xmlns="http://www.w3.org/2000/svg">
<metadata></metadata>
<defs>
<font id="pigiarniqitalic" horiz-adv-x="1193" >
<font-face units-per-em="2048" ascent="1638" descent="-410" />
<missing-glyph horiz-adv-x="1030" />
<glyph unicode="&#xfb01;" horiz-adv-x="1115" d="M192 0l164 947h-146l23 133h146l16 92q19 108 63.5 185t107 127t139.5 73.5t160 23.5q58 0 111.5 -9t98.5 -21.5t77.5 -27.5t49.5 -27l-95 -152q-16 10 -43.5 28t-64 35.5t-81 30t-93.5 12.5q-117 0 -180.5 -57t-82.5 -170l-25 -143h615l-187 -1080h-159l164 947h-456 l-164 -947h-158z" />
<glyph unicode="&#xfb02;" horiz-adv-x="1171" d="M190 0l164 948h-146l23 132h146l15 88q20 111 66 189.5t109 128t138.5 72.5t153.5 23q63 0 123 -9t107 -23l144 18l-235 -1350q-10 -57 11 -79t81 -22q9 0 26 1t28 3l8 -92q-19 -8 -43 -16t-49 -14.5t-50 -10.5t-46 -4q-31 0 -59 9.5t-47 32.5t-26.5 61.5t2.5 96.5 l133 764h-455l-164 -947h-158zM535 1080h455l54 308q-39 21 -95.5 41t-122.5 20q-121 0 -184 -57.5t-82 -168.5z" />
<glyph unicode="&#xfb03;" horiz-adv-x="1721" d="M182 0l164 948h-146l23 132h146l15 84q19 111 64.5 190t108.5 129.5t138 74t153 23.5q51 0 103.5 -8.5t99 -20.5t83 -26t55.5 -26q60 42 131 61.5t149 19.5q58 0 111.5 -9t98.5 -21.5t78 -27.5t49 -27l-95 -152q-16 10 -43.5 28t-64 35.5t-80.5 30t-93 12.5 q-118 0 -185.5 -58.5t-86.5 -170.5l-25 -141h623l-187 -1080h-158l164 947h-457l-164 -947h-158l164 948h-456l-164 -948h-158zM527 1080h456l16 92q10 60 28.5 107.5t43.5 87.5q-17 11 -43 25.5t-58.5 27t-70 21.5t-77.5 9q-117 0 -184.5 -60t-85.5 -164z" />
<glyph unicode="&#xfb04;" horiz-adv-x="1780" d="M180 0l164 948h-146l23 132h146l15 87q19 111 66 189.5t110 128.5t139 73t154 23q53 0 105 -8.5t97 -21.5t79.5 -28t53.5 -27q62 45 132 65t144 20q63 0 123 -9t107 -23l144 18l-235 -1350q-10 -57 11 -79t81 -22q9 0 26 1t28 3l8 -92q-19 -8 -43 -16t-49 -14.5 t-50 -10.5t-46 -4q-31 0 -59 9.5t-47 32.5t-26.5 61.5t2.5 96.5l133 764h-455l-164 -947h-158l164 948h-455l-164 -948h-158zM525 1080h455l15 88q11 60 29 107t44 88q-18 11 -43 26t-56 28.5t-67.5 23t-76.5 9.5q-118 0 -187.5 -62.5t-87.5 -165.5zM1138 1080h455l54 308 q-39 21 -95.5 41t-122.5 20q-121 0 -184 -58.5t-83 -172.5z" />
<glyph horiz-adv-x="1024" />
<glyph horiz-adv-x="1024" />
<glyph unicode="&#xd;" horiz-adv-x="879" />
<glyph unicode=" "  horiz-adv-x="1030" />
<glyph unicode="&#x09;" horiz-adv-x="1030" />
<glyph unicode="&#xa0;" horiz-adv-x="1030" />
<glyph unicode="!" horiz-adv-x="467" d="M137 104q4 25 17 47t31.5 38t41 25.5t45.5 9.5t42 -9.5t31.5 -25.5t17.5 -38t1 -47q-5 -25 -17.5 -47t-30.5 -38t-40 -25.5t-45 -9.5t-42.5 9.5t-32.5 25.5t-18.5 38t-0.5 47zM230 406l177 1158h203l-238 -1158h-142z" />
<glyph unicode="&#x22;" horiz-adv-x="772" d="M387 1192l33 416h182l-115 -416h-100zM699 1192l33 416h182l-115 -416h-100z" />
<glyph unicode="#" horiz-adv-x="1824" d="M143 300l48 148h346l206 648h-346l46 148h348l137 434h148l-137 -434h496l137 434h148l-137 -434h348l-46 -148h-349l-206 -648h348l-48 -148h-347l-145 -456h-149l145 456h-495l-145 -456h-149l145 456h-347zM686 448h495l206 648h-495z" />
<glyph unicode="$" d="M167 204l146 124q34 -45 65.5 -79.5t63 -58.5t64.5 -38.5t70 -18.5l107 616q-36 16 -76.5 36.5t-79 48t-73 63t-57 82.5t-31 106t4.5 134q16 93 63.5 163t111.5 118.5t139 75t146 31.5l22 131h84l-22 -130q48 -3 90.5 -13t80 -31t72.5 -54t69 -81l-118 -127 q-55 72 -105.5 113t-113.5 49l-97 -559q46 -24 93.5 -48t89.5 -52.5t77 -63.5t57.5 -81t29.5 -105t-7 -135q-18 -107 -68.5 -187t-120 -133.5t-150 -82t-160.5 -32.5l-29 -166h-84l29 167q-119 9 -212 60.5t-171 157.5zM542 1226q-10 -59 2 -102t38 -75.5t61 -57t73 -45.5 l90 519q-40 -4 -82 -19.5t-79 -44t-64.5 -72t-38.5 -103.5zM659 131q52 3 100.5 20.5t88 50t68 82t40.5 117.5q11 64 -2.5 112t-43 84t-69 62.5t-82.5 48.5z" />
<glyph unicode="%" horiz-adv-x="1891" d="M279 -22l1553 1685l73 -57l-1543 -1681zM379 1181q17 100 51 180.5t85.5 137t118.5 87t151 30.5q81 0 136.5 -29.5t85.5 -85.5t36 -137t-11 -183q-38 -217 -136 -330t-267 -113t-228.5 113t-21.5 330zM511 1069q-5 -57 6 -102t42 -73t92 -28q62 0 103 28.5t67 74 t41 103.5t25 117q9 53 13.5 106t-6.5 95.5t-41.5 69t-91.5 26.5q-60 0 -100.5 -26t-67 -68.5t-42 -97t-25.5 -110.5q-10 -58 -15 -115zM1148 418q17 100 51.5 181t85 137.5t118 87t151.5 30.5q82 0 137.5 -29.5t85.5 -85.5t36 -137t-12 -184q-38 -217 -136 -330t-267 -113 q-170 0 -229 113t-21 330zM1280.5 305q-4.5 -56 6 -101t41.5 -73t92 -28q62 0 103 28.5t67 74t40.5 102t24.5 113.5q9 55 13.5 109t-6 97t-41 69.5t-91.5 26.5q-60 0 -100.5 -26t-67 -69t-42 -98t-25.5 -113q-10 -56 -14.5 -112z" />
<glyph unicode="&#x26;" horiz-adv-x="1519" d="M159 404q17 98 56.5 171t95 129.5t122 100.5t137.5 83q-27 34 -51 75.5t-41 88t-23 97.5t3 104q15 88 62 154.5t111 111t138 67t143 22.5q71 0 129.5 -19t98.5 -57.5t56.5 -96t3.5 -133.5q-14 -84 -54.5 -149t-98 -116.5t-127.5 -93t-142 -77.5q40 -57 86 -120.5 t94 -127.5t95.5 -126.5t90.5 -117.5q39 45 70.5 84t57.5 75.5t50 73.5t49 78h190q-57 -93 -140.5 -194.5t-194.5 -214.5l251 -276h-265l-119 155q-48 -41 -107.5 -75t-126.5 -58t-141 -37.5t-150 -13.5q-105 0 -188 29.5t-138.5 85.5t-78 136.5t-4.5 181.5zM346 330 q11 -61 45.5 -107t94.5 -73.5t147 -27.5q46 0 98.5 9.5t104 27.5t98.5 44t81 58q-102 125 -196 260t-192 264q-41 -27 -85.5 -58t-84 -70t-69.5 -88t-41 -112q-12 -66 -1 -127zM626 1190.5q5 -41.5 18 -81t32.5 -76.5t43.5 -71q59 32 111.5 66t93.5 71.5t68.5 80.5t36.5 94 q10 57 1.5 97t-30 65t-53 36.5t-67.5 11.5q-44 0 -86 -15t-76.5 -42.5t-58 -66t-31.5 -86.5q-8 -42 -3 -83.5z" />
<glyph unicode="'" horiz-adv-x="478" d="M394 1192l33 416h182l-115 -416h-100z" />
<glyph unicode="(" horiz-adv-x="629" d="M223 808q40 234 189 464.5t406 452.5l49 -55q-102 -104 -182 -212.5t-139 -219t-97 -220.5t-57 -218q-38 -219 0.5 -448t165.5 -462l-67 -49q-176 239 -242.5 485.5t-25.5 481.5z" />
<glyph unicode=")" horiz-adv-x="627" d="M30 -108q208 230 325 458t156 454q39 223 -0.5 438.5t-172.5 424.5l74 59q175 -223 243 -450.5t28 -463.5q-42 -238 -190.5 -481t-407.5 -490z" />
<glyph unicode="*" horiz-adv-x="985" d="M293 1066l339 247l-257 246l86 84l218 -226l44 293h111l-56 -289l287 223l57 -85l-342 -245l255 -246l-84 -85l-210 222l-44 -285h-111l57 289l-294 -228z" />
<glyph unicode="+" horiz-adv-x="1235" d="M232 759l23 131h450l82 474h131l-82 -474h452l-23 -131h-452l-84 -487h-131l84 487h-450z" />
<glyph unicode="," horiz-adv-x="502" d="M72 -244q39 22 73 44t60 46.5t43.5 52.5t23.5 64q2 11 2 21.5t-1 22.5q-7 -5 -25 -11t-38 -6q-43 0 -60.5 29t-10.5 70q4 22 16.5 42t31 35t40.5 24t46 9q41 0 68 -16t42.5 -41t20 -54.5t-0.5 -57.5q-12 -69 -40 -120t-68 -90t-88 -68.5t-100 -55.5z" />
<glyph unicode="-" horiz-adv-x="748" d="M221 665l46 123h526l-46 -123h-526z" />
<glyph unicode="." horiz-adv-x="455" d="M136 102q8 44 45.5 81t88.5 37q49 0 72.5 -37t15.5 -81q-8 -50 -47 -84t-82 -34q-45 0 -73 34t-20 84z" />
<glyph unicode="/" horiz-adv-x="1235" d="M35 -226l1348 1958l89 -52l-1344 -1959z" />
<glyph unicode="0" d="M202 442.5q-2 151.5 32 346.5q32 186 87.5 337.5t136 258.5t186 165t236.5 58q129 0 212.5 -56.5t125.5 -162.5t45.5 -258t-29.5 -342q-34 -195 -89 -346.5t-134 -254.5t-183 -156.5t-236 -53.5t-217 53.5t-128 156.5t-45 254.5zM377 468.5q-1 -74.5 9.5 -138.5 t37.5 -111t74.5 -74t119.5 -27q73 0 129.5 27t100.5 75t76.5 113t57 140t42 158t32.5 166q13 77 24.5 156t13.5 152.5t-7 137.5t-35.5 112t-74 75.5t-121.5 27.5t-132 -26.5t-102.5 -73.5t-77 -111t-57 -138.5t-42 -156.5t-32.5 -165q-14 -82 -24.5 -163t-11.5 -155.5z" />
<glyph unicode="1" d="M248 0l23 137h284l218 1254l-322 -155l29 163l353 167h140l-248 -1429h263l-23 -137h-717z" />
<glyph unicode="2" d="M144 0l20 116q15 90 80.5 172.5t159.5 159.5q57 46 115 89t116.5 85t115.5 85t112 90q46 39 85 78t70 80t52.5 85.5t30.5 94.5q12 72 6 132.5t-35.5 104t-83 67.5t-135.5 24q-36 0 -74.5 -6t-77 -19t-76.5 -32t-72 -46l-76 110q43 31 86.5 56.5t93 44t108.5 28.5t133 10 q102 0 180.5 -31.5t129.5 -90t69.5 -143t0.5 -189.5q-11 -63 -42 -124t-74.5 -117t-94.5 -105.5t-102 -90.5q-56 -45 -121 -91.5l-130 -93t-126 -94t-110.5 -96t-82.5 -98t-42 -99.5h728l-25 -146h-912z" />
<glyph unicode="3" d="M129 80l107 128q8 -8 36.5 -23.5t69 -32t89.5 -28.5t99 -12q99 0 178.5 23t137.5 66t94 103.5t49 134.5q19 110 -5 181.5t-84 113.5t-151.5 58.5t-206.5 18.5l21 121q92 0 175.5 21t148.5 59t107.5 92.5t53.5 121.5q10 56 0 101t-42 77t-87 49.5t-134 17.5 q-44 0 -91 -10.5t-89.5 -26t-78.5 -34.5t-58 -36l-60 117q32 20 74.5 42.5t94 41t112.5 31t131 12.5q97 0 178.5 -23t137.5 -69.5t80.5 -118.5t7.5 -169q-12 -66 -44 -119.5t-77.5 -95.5t-100 -73t-108.5 -50q70 -21 128.5 -54t97 -85t52.5 -126t-4 -177 q-21 -123 -80.5 -212.5t-150 -147t-210 -85.5t-260.5 -28q-59 0 -113.5 11.5t-98.5 28t-77 34.5t-49 31z" />
<glyph unicode="4" d="M173 438l16 100l891 1029h146l-171 -984h158l-24 -145h-158l-77 -438h-169l76 438h-688zM371 582h515l128 742z" />
<glyph unicode="5" d="M175 78l99 141q11 -8 47 -24t82 -32t97 -28t95 -12q77 0 143 32.5t117.5 87t85.5 124.5t47 145q14 77 7.5 147t-35.5 123t-82 84.5t-134 31.5q-90 0 -168 -24.5t-138 -77.5h-91l133 771h771l-26 -149h-611l-75 -432q60 29 125.5 39.5t120.5 10.5q118 0 200 -38.5 t128.5 -108.5t58.5 -167.5t-8 -214.5q-20 -114 -75 -211.5t-136 -168.5t-183.5 -111t-218.5 -40q-72 0 -135 12t-113 28.5t-83.5 34t-44.5 27.5z" />
<glyph unicode="6" d="M202 651q39 229 105.5 407.5t164 300t230 185t303.5 63.5q80 0 154.5 -14t135.5 -40l-86 -152q-24 12 -54.5 23.5t-65 19.5t-71 13t-72.5 5q-96 0 -173.5 -38.5t-140 -111t-111.5 -177t-88 -236.5q28 24 69 44.5t88 35.5t96.5 24t94.5 9q117 0 203.5 -34.5t139.5 -99.5 t70 -158.5t-3 -211.5q-21 -122 -72.5 -220.5t-131 -168t-186.5 -107t-240 -37.5q-233 0 -325.5 169.5t-33.5 506.5zM350.5 375q11.5 -91 47 -148t91.5 -83t121 -26q70 0 137.5 24t123 72t96 120.5t57.5 168.5q15 85 4.5 153t-46 114.5t-95 71.5t-143.5 25 q-111 0 -192.5 -29.5t-151.5 -104.5q-9 -17 -14.5 -35t-10 -36t-7 -35.5l-4.5 -31.5q-25 -129 -13.5 -220z" />
<glyph unicode="7" d="M294 0l871 1423h-820l25 144h986l-20 -113l-875 -1454h-167z" />
<glyph unicode="8" d="M160 433q13 75 47.5 137.5t86.5 115t118.5 96.5t144.5 82q-61 34 -106.5 68.5t-73 77t-37 95t3.5 122.5q17 100 70 172.5t127 118.5t162.5 68t177.5 22q91 0 173 -23t139.5 -70.5t85 -121.5t9.5 -176q-12 -69 -46 -126.5t-84.5 -103.5t-114 -80.5t-133.5 -57.5 q78 -35 139 -74t100.5 -88.5t54.5 -112t1 -143.5q-15 -87 -47 -154t-77.5 -117t-101.5 -84t-118.5 -55.5t-129 -30.5t-132.5 -9q-105 0 -194.5 24t-151.5 77.5t-88.5 139.5t-4.5 211zM327 433q-13 -74 4 -132.5t58 -98.5t102.5 -61t137.5 -21q75 0 143.5 18.5t123 57 t91.5 96.5t51 136q10 59 -3 105.5t-42 83t-70.5 64t-87 48.5t-92 36t-86.5 28q-61 -32 -115.5 -64t-98 -73t-73.5 -94.5t-43 -128.5zM504 1219q-11 -67 12.5 -116t66 -85t96.5 -62t103 -47q73 30 132.5 65.5t103.5 73.5t71.5 78t34.5 80q12 69 -5.5 119t-54.5 82.5t-91 48 t-116 15.5q-58 0 -116 -14t-107 -44.5t-83.5 -78.5t-46.5 -115z" />
<glyph unicode="9" d="M172 29l85 152q24 -12 54.5 -23.5t65 -19.5t71 -13t71.5 -5q96 0 174.5 38.5t141 111t111.5 177t87 236.5q-28 -24 -68.5 -44.5t-87.5 -35.5t-97 -24t-95 -9q-117 0 -203.5 34.5t-139 99.5t-70 158.5t2.5 211.5q21 122 72 220.5t131 168t187 107t240 37.5 q234 0 326 -169.5t33 -506.5q-40 -230 -106 -408t-163.5 -299.5t-229.5 -185t-304 -63.5q-80 0 -154 14t-135 40zM438 925.5q10 -67.5 45.5 -114t95 -71.5t143.5 -25q56 0 103.5 7t89.5 22.5t79 41t73 63.5q9 16 14.5 34.5t9 36.5t6 35.5t5.5 31.5q24 129 13 220t-46.5 148 t-91.5 83t-121 26q-70 0 -137.5 -24t-122.5 -72t-95.5 -120.5t-57.5 -168.5q-15 -86 -5 -153.5z" />
<glyph unicode=":" horiz-adv-x="510" d="M188 102q8 44 45.5 81t88.5 37q49 0 72.5 -37t15.5 -81q-8 -50 -47 -84t-82 -34q-45 0 -73 34t-20 84zM330 925q8 44 45.5 81t88.5 37q49 0 72.5 -37t15.5 -81q-8 -50 -47 -84t-82 -34q-45 0 -73 34t-20 84z" />
<glyph unicode=";" horiz-adv-x="510" d="M102 -244q39 22 73 44t60 46.5t43.5 52.5t23.5 64q2 11 2 21.5t-1 22.5q-7 -5 -25 -11t-38 -6q-43 0 -60.5 29t-10.5 70q4 22 16.5 42t31 35t40.5 24t46 9q41 0 68 -16t42.5 -41t20 -54.5t-0.5 -57.5q-12 -69 -40 -120t-68 -90t-88 -68.5t-100 -55.5zM330 936 q8 44 45.5 81t88.5 37q49 0 72.5 -37t15.5 -81q-8 -50 -47 -84t-82 -34q-45 0 -73 34t-20 84z" />
<glyph unicode="&#x3c;" horiz-adv-x="989" d="M210 744l4 22l840 786l95 -106l-732 -679l-3 -14l493 -689l-126 -103z" />
<glyph unicode="=" horiz-adv-x="1255" d="M205 552l22 123h1033l-22 -123h-1033zM264 877l21 122h1033l-21 -122h-1033z" />
<glyph unicode="&#x3e;" horiz-adv-x="989" d="M105 64l90 -103l843 783l4 22l-568 786l-131 -106l496 -679l-3 -14z" />
<glyph unicode="?" horiz-adv-x="976" d="M267 102q5 25 17.5 46.5t31 37.5t40.5 25t45 9t41.5 -9t30 -25t16.5 -37.5t0 -46.5q-4 -24 -16 -45.5t-29.5 -37.5t-39 -25.5t-44.5 -9.5t-42 9.5t-31.5 25.5t-18 37.5t-1.5 45.5zM346 1471q74 63 166.5 100t213.5 37q85 0 151.5 -26.5t108.5 -81.5t56.5 -138.5 t-5.5 -198.5q-13 -76 -39 -135t-60.5 -106.5t-74.5 -85t-81.5 -68.5t-81 -58t-71.5 -53q-67 -60 -84.5 -107.5t-38.5 -166.5h-149q12 70 26 125.5t37 101.5t58.5 86.5t91.5 81.5q65 49 116 86t89 79t63 98.5t40 143.5q10 56 5.5 107t-28 89.5t-69 61.5t-117.5 23 q-55 0 -104.5 -18.5t-81.5 -38t-61 -45.5z" />
<glyph unicode="@" horiz-adv-x="2132" d="M219.5 225q-8.5 166 28.5 377q29 164 92 302t151 250t196.5 197t227 142t242 86t242.5 29q109 0 211.5 -25.5t190.5 -76.5t157 -128.5t111.5 -182t53.5 -236.5t-17 -292q-26 -152 -79 -278t-135.5 -216.5t-197 -140.5t-262.5 -50q-54 0 -89.5 34.5t-34.5 110.5 q-62 -38 -115 -65.5t-103.5 -45t-100.5 -26t-106 -8.5q-66 0 -116.5 18.5t-83 53t-45.5 84t-2 110.5q13 79 49.5 138t91 101.5t123.5 71.5t149 48.5t168.5 32t179.5 22.5l24 136q7 40 -1 73.5t-30.5 57t-58 36.5t-82.5 13q-40 0 -79 -6.5t-82.5 -23t-93.5 -44t-112 -68.5 l-58 111q63 41 119 69.5t108.5 46.5t104.5 26t108 8q108 0 174 -23t100.5 -64t41 -97t-4.5 -123l-97 -554q-6 -39 -5.5 -64t9 -40t25 -21t40.5 -6q70 0 130 30t110 97t89 174.5t66 262.5q24 139 16 253t-40.5 203.5t-87.5 155.5t-125.5 109.5t-154 64.5t-172.5 21 q-99 0 -202.5 -25.5t-203 -75t-191 -123t-166 -169.5t-128 -214.5t-77.5 -257.5q-19 -105 -23.5 -221t12.5 -229t59.5 -215.5t119 -180t190.5 -123.5t274 -46h3q47 0 102.5 7.5t112.5 22.5l-24 -134q-19 -8 -46.5 -14t-58 -10t-60 -6t-52.5 -2q-125 0 -241 26t-214 83 t-173 146.5t-119 216.5t-52.5 293zM805 282q-14 -83 26.5 -129t121.5 -46q77 0 166.5 31.5t205.5 105.5l55 316q-116 -12 -215.5 -28.5t-174.5 -46.5t-123 -78.5t-62 -124.5z" />
<glyph unicode="A" horiz-adv-x="1277" d="M30 0l808 1567h165l248 -1567h-188l-75 534h-529l-260 -534h-169zM515 655h459l-100 716z" />
<glyph unicode="B" horiz-adv-x="1248" d="M150 0l272 1567h449q107 0 188.5 -25t133.5 -74q51 -50 71 -123q11 -40 11 -87q0 -38 -7 -81q-9 -54 -35 -106.5t-68 -97.5t-101 -80t-133 -54q61 -16 119 -46t98 -82t58 -130q8 -37 9 -82q0 -49 -10 -107q-13 -75 -57.5 -145.5t-117 -125.5t-171 -88t-219.5 -33h-490z M342 130h269q96 0 170 22t126 60.5t83.5 91t42.5 114.5q6 37 6 71q0 31 -5 61q-11 62 -50 107t-107 71t-169 26h-258zM473 884h204q38 0 81.5 5.5t86.5 18.5t85 34t75.5 51t57.5 70.5t33 92.5q7 39 7 73q-1 27 -5 51q-10 53 -49.5 88.5t-111.5 53t-183 17.5h-185z" />
<glyph unicode="C" horiz-adv-x="1388" d="M298 797q58 337 266.5 574t512.5 237q177 0 259.5 -38t169.5 -139l-126 -112q-65 75 -135.5 110t-197.5 35q-205 0 -362.5 -190t-203.5 -451q-21 -119 -21 -219q0 -185 71 -303q109 -182 287 -182q168 0 266 62t159 133l111 -88q-98 -107 -221 -179t-340 -72 q-297 -1 -427 229q-88 155 -89 371q0 104 21 222z" />
<glyph unicode="D" horiz-adv-x="1358" d="M150 0l272 1567h335q135 0 237.5 -27t176.5 -76.5t121 -118.5t70 -153t23 -180v-6q0 -94 -16 -194q-19 -109 -54 -211.5t-87.5 -192.5t-124.5 -165t-165 -129t-208.5 -84t-255.5 -30h-324zM342 130h127q127 0 242.5 38t210.5 120.5t163 212.5t100 315q15 87 15 166 q0 40 -4 77q-12 113 -67.5 197t-160 132.5t-268.5 48.5h-131z" />
<glyph unicode="E" horiz-adv-x="1107" d="M150 0l272 1567h837l-24 -138h-667l-93 -534h532l-23 -131h-532l-109 -626h697l-23 -138h-867z" />
<glyph unicode="F" horiz-adv-x="1053" d="M150 0l272 1567h837l-24 -138h-667l-93 -534h531l-23 -131h-531l-132 -764h-170z" />
<glyph unicode="G" horiz-adv-x="1381" d="M236 592q0 101 18 204q18 107 55.5 209t91.5 192t124 165.5t154 130t181 85t206 30.5q80 0 138 -8.5t105.5 -29t91 -55t94.5 -85.5l-133 -122q-43 48 -81.5 78t-77.5 47t-81.5 23.5t-93.5 6.5q-105 0 -201.5 -49.5t-175 -135.5t-134 -203.5t-79.5 -252.5 q-16 -94 -18 -182v-17q0 -79 13 -149q14 -78 43 -142.5t73 -111t102.5 -72.5t132.5 -26q54 0 99.5 2t87 7.5t81 14t81.5 21.5l102 586h170l-119 -685q-97 -41 -229.5 -66.5t-299.5 -25.5q-111 0 -196.5 32t-147.5 89t-101 135t-58 169q-19 89 -19 186q0 3 1 5z" />
<glyph unicode="H" horiz-adv-x="1416" d="M150 0l272 1567h170l-122 -702h776l122 702h170l-272 -1567h-170l127 735h-776l-127 -735h-170z" />
<glyph unicode="I" horiz-adv-x="470" d="M150 0l272 1567h170l-272 -1567h-170z" />
<glyph unicode="J" horiz-adv-x="1064" d="M81 327l181 67q13 -77 33.5 -129.5t49.5 -85t66 -47t81 -14.5q51 0 102 15.5t96 51.5t79 95.5t49 147.5l198 1139h170l-194 -1114q-19 -112 -60 -200.5t-107 -150t-159.5 -94t-216.5 -32.5q-72 0 -133.5 17.5t-109.5 58t-80 108t-45 167.5z" />
<glyph unicode="K" horiz-adv-x="1246" d="M149 0l272 1567h170l-113 -649l744 649h191l-816 -731l604 -836h-215l-539 741l-128 -741h-170z" />
<glyph unicode="L" horiz-adv-x="1058" d="M150 0l272 1567h170l-249 -1429h706l-23 -138h-876z" />
<glyph unicode="M" horiz-adv-x="1588" d="M152 0l272 1567h176l227 -1392l705 1392h175l-272 -1567h-170l205 1181l-595 -1181h-156l-192 1181l-205 -1181h-170z" />
<glyph unicode="N" horiz-adv-x="1419" d="M150 0l271 1567h170l554 -1293l225 1293h170l-272 -1567h-163l-563 1287l-223 -1287h-169z" />
<glyph unicode="O" horiz-adv-x="1643" d="M254 458q-7 56 -7 117q0 103 21 220q31 179 110 328.5t191.5 257t250.5 167.5t287 60q152 0 268.5 -54.5t188.5 -156.5q74 -103 98 -249q11 -65 11 -136q0 -91 -18 -194q-21 -119 -62.5 -227.5t-100 -202.5t-133 -170t-161 -130t-183 -83.5t-199.5 -29.5 q-166 0 -285 58.5t-188 166t-89 258.5zM437 532q13 -126 62 -218t133 -143.5t200 -51.5t221.5 55t190 147.5t144 214t82.5 255.5q18 103 18 194q0 42 -4 81q-12 124 -61 212.5t-135 137t-208 48.5q-108 0 -210 -46.5t-187 -132t-146 -206.5t-87 -270q-17 -101 -18 -190 q1 -45 5 -87z" />
<glyph unicode="P" horiz-adv-x="1159" d="M150 0l272 1567h425q132 0 221 -33.5t140 -93.5t66 -144q7 -39 7 -81q0 -48 -9 -102q-6 -35 -24.5 -82.5t-51.5 -98t-84 -99t-123.5 -87.5t-167.5 -63t-217 -24h-170l-114 -659h-170zM456 788l166 1q92 0 172 22t143 65t105 105t56 143q7 43 7 81q0 25 -3 49 q-8 58 -45.5 98.5t-108.5 62.5t-185 22h-194z" />
<glyph unicode="Q" horiz-adv-x="1643" d="M255 458q-8 57 -8 119q0 102 21 218q20 119 62.5 225.5t103 197t136 163t161.5 123t180.5 77.5t193.5 27q153 0 269.5 -54t190 -156t97.5 -248q11 -64 11 -135q0 -92 -18 -196q-25 -144 -79.5 -271.5t-132 -231.5t-175 -180.5t-208.5 -116.5q27 -97 98.5 -177t184.5 -149 l-128 -136q-63 41 -118.5 89.5t-100.5 102t-77.5 111t-48.5 117.5q-18 -1 -33 -1.5t-32 -0.5q-161 0 -277.5 58.5t-184.5 165.5t-88 259zM436 529q14 -127 64 -218t133.5 -141.5t197.5 -50.5q118 0 224 56.5t190.5 150.5t143 215t81.5 250q18 105 18 196q0 41 -4 79 q-11 124 -60 212.5t-135 137t-210 48.5q-106 0 -208 -46.5t-187 -132t-146.5 -206.5t-87.5 -270q-18 -102 -18 -192q0 -46 4 -88z" />
<glyph unicode="R" horiz-adv-x="1212" d="M150 0l272 1567h425q132 0 221 -32.5t140.5 -91t65.5 -141.5q7 -38 7 -80q0 -49 -9 -103q-7 -41 -30.5 -98.5t-70.5 -116.5t-119 -112.5t-177 -86.5l316 -705h-202l-288 672q-13 -2 -50.5 -3t-101.5 -1h-114l-115 -668h-170zM459 797h162q93 0 173.5 21t143.5 62.5 t104.5 102t54.5 139.5q8 45 8 85q0 24 -3 46q-8 58 -46 97.5t-110.5 60.5t-187.5 21h-190z" />
<glyph unicode="S" horiz-adv-x="1205" d="M108 198l134 131q48 -55 92.5 -94.5t91 -65t97.5 -37.5t112 -12q76 0 146.5 18.5t125 55.5t87 91t32.5 125q0 57 -31 102t-82.5 85t-118 77t-137.5 78q-93 54 -159.5 101t-109.5 96.5t-63 105.5t-20 128q0 109 50.5 189t131.5 132.5t181.5 78t201.5 25.5q72 0 134 -10.5 t116 -34t101.5 -60.5t90.5 -90l-115 -118q-66 92 -150 135.5t-187 43.5q-39 0 -81.5 -5.5t-83.5 -18t-77.5 -32.5t-64 -48t-44 -64.5t-16.5 -82.5q0 -68 25 -117.5t67.5 -88.5t100 -71.5t122.5 -68.5q33 -18 76 -40.5t88 -50.5t88.5 -63.5t77 -80t54.5 -99.5t21 -122 q0 -77 -23.5 -139.5t-64.5 -112t-97.5 -86t-122.5 -60.5t-138.5 -36t-146.5 -12q-89 0 -160.5 13.5t-132.5 41t-114.5 69.5t-104.5 99z" />
<glyph unicode="T" horiz-adv-x="1206" d="M279 1423l25 144h1142l-25 -144h-487l-247 -1423h-170l247 1423h-485z" />
<glyph unicode="U" horiz-adv-x="1473" d="M230 276q-6 39 -6 83q0 70 15 154l183 1054h170l-185 -1064q-9 -55 -10 -102q0 -32 5 -61q11 -70 52.5 -117.5t115 -71t181.5 -23.5q120 0 205 23.5t143 71t92 118t50 164.5l185 1062h169l-183 -1051q-23 -131 -73.5 -231.5t-134 -168.5t-204.5 -103t-285 -35 q-150 0 -252 32.5t-160 99t-73 166.5z" />
<glyph unicode="V" horiz-adv-x="1235" d="M302 1567h184l173 -1322l637 1322h180l-786 -1567h-164z" />
<glyph unicode="W" horiz-adv-x="1780" d="M310 1567h183l59 -1291l553 1291h134l97 -1291l504 1291h180l-644 -1567h-174l-82 1274l-540 -1274h-163z" />
<glyph unicode="X" horiz-adv-x="1279" d="M32 0l656 830l-329 737h185l259 -593l487 593h177l-605 -710l385 -857h-185l-317 706l-537 -706h-176z" />
<glyph unicode="Y" d="M319 1567h184l241 -704l488 704h184l-610 -835l-127 -732h-172l124 715z" />
<glyph unicode="Z" horiz-adv-x="1109" d="M59 0l23 137l1036 1270h-790l28 160h950l-22 -125l-1029 -1282h816l-27 -160h-985z" />
<glyph unicode="[" horiz-adv-x="574" d="M122 -159l327 1885h314l-14 -79h-174l-299 -1727h174l-14 -79h-314z" />
<glyph unicode="\" horiz-adv-x="1245" d="M361 1676l115 56l667 -1955l-116 -55z" />
<glyph unicode="]" horiz-adv-x="574" d="M82 -160l14 80h174l299 1726h-174l14 79h314l-327 -1885h-314z" />
<glyph unicode="^" horiz-adv-x="1307" d="M198 759l739 919h31l410 -919h-186l-276 686h-9l-526 -686h-183z" />
<glyph unicode="_" horiz-adv-x="1023" d="M-67 -358l20 111h1032l-20 -111h-1032z" />
<glyph unicode="`" horiz-adv-x="0" d="M33 1494l147 117l244 -346l-69 -59z" />
<glyph unicode="a" horiz-adv-x="1232" d="M188 404q0 -105 30.5 -183.5t83 -131t122 -78.5t147.5 -26q56 0 102.5 10.5t88 33.5t81.5 61t83 93q-5 -36 -7 -58t-2 -41v-26q0 -12 0.5 -25.5t1.5 -32.5h156l-7 70q0 39 2.5 84t7 90.5t10.5 88.5t12 79l117 646q-22 7 -62 14t-84 12.5t-84 9t-61 3.5q-191 0 -330 -57.5 t-230 -153.5t-134.5 -221t-43.5 -261zM360 415q0 130 44 233.5t114 176t158 111t176 38.5q16 0 43.5 -3t55 -8.5t51.5 -12.5t35 -15l-93 -500q-6 -31 -20.5 -66t-36.5 -70.5t-51 -68.5t-65.5 -58t-79.5 -40t-92 -15q-54 0 -98 24t-75.5 65t-48.5 95t-17 114z" />
<glyph unicode="b" horiz-adv-x="1194" d="M155 8l271 1559h158l-99 -566q30 18 69.5 35.5t83.5 31t92 21.5t96 8q117 0 191 -44t112 -118t44 -172l2 -48q0 -76 -15 -158q-25 -146 -83 -254t-134 -179t-164.5 -106t-174.5 -35q-54 0 -102.5 0.5t-100.5 3t-112 7.5t-134 14zM339 157q45 -33 116 -43.5t168 -10.5 q65 0 125.5 38t109.5 99.5t83.5 140t48.5 158.5q13 73 13 143q-1 6 -1 14q-2 76 -27 135.5t-76 95t-135 35.5q-41 0 -85 -7t-84 -19t-74.5 -27.5t-56.5 -32.5z" />
<glyph unicode="c" horiz-adv-x="1075" d="M186 402v10q0 65 12 132q19 111 68.5 211.5t125.5 176.5t175.5 121t219.5 45q59 0 108 -7.5t89.5 -24.5t74 -46t62.5 -72l-119 -94q-46 67 -97.5 97t-144.5 30q-80 0 -146 -34.5t-116 -93t-83.5 -134.5t-47.5 -159q-10 -56 -10 -110q0 -30 3 -60q9 -82 41 -146.5 t84.5 -103t126.5 -38.5q116 0 186.5 40.5t133.5 111.5l97 -76q-48 -57 -98.5 -94.5t-103.5 -59.5t-111 -31t-124 -9q-84 0 -150 21.5t-113.5 60t-78.5 91t-47 114t-17 131.5z" />
<glyph unicode="d" horiz-adv-x="1222" d="M188 394q0 80 16.5 163.5t49 161.5t81.5 147t114 120.5t146 81t179 29.5q84 0 154 -11.5t133 -36.5l93 518h158l-213 -1226q-11 -60 -17.5 -121t-6.5 -114q0 -32 2.5 -59t8.5 -47h-148q-11 17 -17.5 40.5t-9.5 49.5q-58 -33 -104.5 -53.5t-88 -32.5t-80 -16.5t-80.5 -4.5 q-94 0 -163.5 32.5t-115.5 88.5t-68.5 130.5t-22.5 159.5zM357 432q0 -59 13.5 -115.5t43.5 -100.5t77.5 -71t114.5 -27q40 0 77.5 2.5t76 12t77.5 29t82 53.5l120 691q-49 31 -119.5 42t-163.5 11q-68 0 -124 -22.5t-100.5 -61.5t-77.5 -91t-54.5 -110.5t-32 -120.5 t-10.5 -121z" />
<glyph unicode="e" horiz-adv-x="1084" d="M171 398q0 -94 24 -171.5t70.5 -133.5t115.5 -87t158 -31q151 0 264 36t199 103l-88 125q-33 -29 -75.5 -53.5t-88.5 -42t-92.5 -27.5t-87.5 -10q-61 0 -105 22.5t-72.5 65t-42 103.5t-13.5 137v11t0.5 17t1.5 17t2 11q83 1 169.5 6.5t167.5 19t152 37t124 61t84 90 t31 123.5q0 76 -26.5 128t-70.5 83.5t-101.5 45t-118.5 13.5q-132 0 -239 -57.5t-183 -154.5t-117.5 -223t-41.5 -264zM358 588q16 67 46 135t74.5 123t103 89.5t132.5 34.5q40 0 75.5 -9.5t62 -29.5t42 -50t15.5 -70q0 -46 -23.5 -80t-64.5 -58.5t-95.5 -40.5t-115.5 -25.5 t-126 -13.5t-126 -5z" />
<glyph unicode="f" horiz-adv-x="576" d="M-270 -454q17 -12 39 -21t46 -15.5t48.5 -9.5t47.5 -3q44 0 84.5 6.5t78 25t70.5 51t61 85t51 127t40 176.5l168 1007h205l33 132h-215q24 128 45.5 203t55.5 107q60 60 192 60q16 0 35 -5t38.5 -13t38 -17.5t29.5 -18.5l92 136q-17 12 -40.5 21t-49.5 15.5t-55 9.5 t-58 3q-82 0 -156 -23.5t-135.5 -74t-105.5 -129.5t-63 -190l-16 -84h-151l-23 -132h146l-166 -1020q-11 -66 -20.5 -109.5t-19.5 -73t-20.5 -49t-22.5 -35.5q-22 -29 -54 -44.5t-80 -15.5q-12 0 -27.5 6.5t-31.5 15.5t-31 19.5t-25 19.5z" />
<glyph unicode="g" horiz-adv-x="1232" d="M128 -327q39 -41 80 -67.5t83.5 -42t88 -22t93.5 -6.5q120 0 213.5 20t162 70t113 135t67.5 215l173 1005q3 15 11 43q4 14 8 27t9 26h-156l-21 -62q-71 44 -140.5 63.5t-157.5 19.5q-83 0 -157.5 -26t-137.5 -72.5t-113 -110.5t-85 -140t-54 -161.5t-19 -174.5 q0 -85 22.5 -162t68 -136t114.5 -94t162 -35q48 0 89.5 5.5t81.5 17t80 30t84 44.5l-19 -107q-14 -96 -51.5 -158t-89.5 -98t-113.5 -49.5t-124.5 -13.5q-70 0 -133 32t-132 101zM359 439q0 59 11 120t33.5 119t56 109t78 89.5t100.5 60.5t123 22q33 0 72 -4t77 -12.5 t69.5 -20t49.5 -26.5l-118 -680q-36 -23 -71 -40.5t-71 -29.5t-75.5 -18.5t-85.5 -6.5h-16q-59 0 -103 25.5t-73 69t-43 101t-14 122.5z" />
<glyph unicode="h" horiz-adv-x="1156" d="M152 0l272 1567h158l-99 -570q48 24 92.5 42.5t88.5 31.5t88 19.5t91 6.5q81 0 142 -24t99 -70t50 -114q6 -31 5 -66q0 -42 -8 -89l-127 -734h-158l126 725q6 35 6 65q0 69 -32 114q-46 64 -166 64q-38 0 -74 -5.5t-74 -16.5t-79.5 -27.5t-90.5 -37.5l-152 -881h-158z " />
<glyph unicode="i" horiz-adv-x="492" d="M168 0l187 1080h158l-187 -1080h-158zM401 1434q6 40 38 66t72 26q42 0 63 -28q16 -21 16 -48q0 -9 -2 -18q-7 -39 -37.5 -68t-72.5 -29q-20 0 -36 8.5t-26 22.5t-14 32q-2 9 -3 18q0 9 2 18z" />
<glyph unicode="j" horiz-adv-x="475" d="M-168 -367l38 139q8 -1 20.5 -1.5t22.5 -0.5q46 0 84.5 15.5t68.5 41.5t49.5 59.5t25.5 69.5l195 1124h158l-198 -1140q-15 -84 -57.5 -142t-97.5 -100q-24 -18 -54 -31t-61 -21t-63.5 -12t-61.5 -4h-15t-19 0.5t-19 1t-16 1.5zM384 1434q6 40 38.5 66t71.5 26 q21 0 37 -7.5t26 -20.5t13 -30q2 -9 2 -19q0 -8 -1 -17q-3 -20 -13 -37.5t-24.5 -30.5t-33 -21t-39.5 -8q-20 0 -36 8.5t-26 22.5t-15 32q-2 9 -2 18t2 18z" />
<glyph unicode="k" horiz-adv-x="1025" d="M146 0l272 1568h158l-156 -896l520 408h192l-500 -399l333 -681h-187l-275 588l-112 -82l-87 -506h-158z" />
<glyph unicode="l" horiz-adv-x="507" d="M178 85q-3 17 -3 37q0 27 6 61l241 1384h158l-234 -1346q-6 -33 -3 -53.5t14 -32t31 -15.5t48 -4q8 0 23.5 1t31.5 3l7 -92q-19 -8 -42.5 -16t-48.5 -14.5t-49.5 -10.5t-45.5 -4q-30 0 -58 9t-48 31.5t-28 61.5z" />
<glyph unicode="m" horiz-adv-x="1722" d="M155 0l165 954q7 38 10.5 73.5t4.5 56.5h148q0 -15 -1 -40.5t-2 -45.5q33 16 73.5 34t86 32t94 23.5t96.5 9.5q82 0 140 -26t89 -80q59 25 112 45t102 33.5t95.5 20.5t94.5 7q76 0 128 -25.5t81 -69.5q28 -46 36 -106q3 -23 4 -47q0 -39 -8 -82l-133 -767h-158l130 752 q6 31 6 58q1 20 -3 38q-8 40 -29.5 67t-54 40t-72.5 13q-62 0 -141.5 -17t-160.5 -55q5 -28 3.5 -62.5t-7.5 -69.5l-132 -764h-158l130 750q6 36 6 66q0 63 -27 99q-40 53 -134 53q-76 0 -154.5 -23.5t-147.5 -56.5l-154 -888h-158z" />
<glyph unicode="n" horiz-adv-x="1162" d="M155 0l163 941q6 37 11 76.5t5 66.5h153q0 -10 -0.5 -23.5t-1.5 -27.5t-2 -27t-2 -22q41 23 87 43.5t96 36t101.5 24.5t102.5 9q79 0 137 -24t93 -68q34 -43 45 -107q5 -29 5 -62q0 -38 -7 -81l-131 -755h-158l128 742q5 31 5 57q1 23 -3 43q-8 42 -30 70t-55 42t-72 14 q-44 0 -91.5 -7t-94.5 -20.5t-91.5 -32t-84.5 -40.5l-150 -868h-158z" />
<glyph unicode="o" horiz-adv-x="1271" d="M216 555q40 232 206 387t397 155q237 0 337 -161q71 -114 71 -266q0 -64 -13 -135q-39 -228 -202.5 -390.5t-381.5 -162.5q-254 0 -356 157q-71 109 -72 267q0 70 14 149zM378 536q-11 -63 -11 -115q-1 -86 29 -143q48 -92 105.5 -130.5t143.5 -38.5q83 0 152 39t148 141 t110 277q8 45 8 88q-1 102 -45 190q-62 126 -225 126t-272.5 -120t-142.5 -314z" />
<glyph unicode="p" horiz-adv-x="1178" d="M67 -453l238 1374q2 7 5 27t5.5 44t5 47.5t2.5 36.5h151v-37t-1 -37q45 19 88 36t85 30t84 21t84 8q116 0 189 -45.5t111 -121.5t44 -176q1 -22 1 -45q0 -79 -15 -164q-19 -110 -65.5 -212t-116 -180t-159.5 -125t-195 -47q-43 0 -78.5 4.5t-70 14.5t-69 27t-75.5 41 l-90 -521h-158zM340 210q32 -33 66 -51.5t70 -27.5t73.5 -11t78.5 -2q73 0 131.5 37t102.5 97.5t73.5 138t43.5 159.5q12 69 12 130q0 16 -1 32q-4 75 -30.5 130.5t-76.5 87.5t-128 32q-74 0 -144 -17t-154 -59z" />
<glyph unicode="q" horiz-adv-x="1216" d="M194 323q-5 37 -5 76q0 67 13 140q22 126 75 229t127 176t164.5 113t186.5 40t166.5 -21.5t131.5 -61.5l21 62h156q-9 -26 -17 -52.5t-11 -43.5l-249 -1433h-158l93 535q-52 -25 -93.5 -43.5t-80 -30.5t-77 -17.5t-81.5 -5.5q-110 0 -186.5 43.5t-120.5 118.5t-55 176z M361 391q6 -77 33.5 -137t77 -96.5t120.5 -36.5q49 0 89.5 3t78 12.5t74 28.5t77.5 51l118 680q-18 14 -50 25.5t-70.5 20t-79.5 13t-78 4.5q-78 0 -142 -32.5t-113 -88t-80.5 -130t-46.5 -158.5q-10 -57 -10 -112q0 -24 2 -47z" />
<glyph unicode="r" horiz-adv-x="794" d="M150 0l166 960q7 40 11.5 70t4.5 54h152q0 -23 -2 -50t-7 -56l-13 -81q39 38 89.5 75t107 65.5t116.5 46t119 17.5q13 0 27 -2t21 -4l-63 -165q-16 5 -34 6.5t-41 1.5q-59 0 -113.5 -15.5t-102 -41t-85.5 -58.5t-64 -67l-131 -756h-158z" />
<glyph unicode="s" horiz-adv-x="992" d="M95 147l125 114q35 -45 68.5 -74.5t68 -47.5t72.5 -25.5t85 -7.5q51 0 98.5 11t85.5 32.5t64 54t34 75.5q3 15 3 29q1 22 -7 40q-12 29 -35 49t-52.5 34t-58.5 24q-39 14 -76.5 27.5t-75.5 27.5q-27 9 -59 21.5t-63.5 29.5t-60 40.5t-48 54t-27.5 70.5q-4 19 -5 41 q0 23 5 49q13 72 55 124.5t102 87.5t132 52t144 17q60 0 110.5 -6.5t93.5 -21.5t79 -39t68 -60l-110 -109q-58 59 -118 87t-142 28q-42 0 -85.5 -8t-80 -26t-62.5 -47t-33 -70q-2 -13 -3 -25q0 -22 10 -40q14 -28 38.5 -49t60 -36.5t72.5 -27.5q42 -14 83.5 -29t84.5 -29 q45 -17 88.5 -39t75.5 -56t47 -84q8 -28 9 -62q0 -28 -6 -60q-14 -76 -58 -133.5t-106.5 -95.5t-138.5 -57.5t-153 -19.5q-70 0 -127 10t-105.5 30.5t-89 51.5t-76.5 73z" />
<glyph unicode="t" horiz-adv-x="733" d="M226 942l24 137h156l47 274h158l-47 -274h263l-41 -137h-246l-108 -623q-8 -42 -8 -80q0 -35 10 -61q10 -28 30.5 -46t57.5 -18q12 0 32 2t43 6t46.5 8.5t41.5 9.5l-12 -137q-21 -4 -48.5 -7.5t-54.5 -6.5t-50 -4.5t-35 -1.5q-79 0 -128 20t-72.5 58.5t-26.5 92.5 q-1 11 -1 23q0 46 10 101l115 664h-156z" />
<glyph unicode="u" horiz-adv-x="1161" d="M158 192q-3 25 -3 51q0 40 7 84l131 753h158l-129 -741q-4 -26 -4 -48q0 -25 5 -47q10 -40 33 -66.5t56 -40t70 -13.5q103 0 189 28.5t171 85.5l146 842h158l-163 -939q-10 -60 -10 -128v-13h-161q-1 9 0 22.5t1.5 29.5t2 32t3.5 28q-54 -32 -103 -56t-96 -40 t-94.5 -24.5t-98.5 -8.5q-85 0 -141.5 26.5t-88 73.5t-39.5 109z" />
<glyph unicode="v" horiz-adv-x="967" d="M160 1080h170l129 -920l438 920h170l-561 -1080h-155z" />
<glyph unicode="w" horiz-adv-x="1381" d="M160 1080h170l73 -838l364 838h102l88 -835l354 835h170l-512 -1080h-111l-79 851l-364 -851h-111z" />
<glyph unicode="x" horiz-adv-x="980" d="M23 0l473 555l-249 525h171l170 -421l331 421h170l-443 -519l267 -561h-171l-193 452l-355 -452h-171z" />
<glyph unicode="y" horiz-adv-x="1008" d="M-186 -444l56 151q55 -25 122 -25q63 0 109.5 19.5t85 56.5t72.5 91t72 123q21 35 44 99l-231 1009h170l177 -864l434 864h171l-633 -1162q-52 -93 -102 -163t-105 -118.5t-123 -74t-161 -25.5q-72 0 -158 19z" />
<glyph unicode="z" horiz-adv-x="985" d="M69 0l22 128l784 805h-606l25 147h785l-21 -124l-775 -809h648l-25 -147h-837z" />
<glyph unicode="{" horiz-adv-x="682" d="M154 602l22 124h66q36 0 62.5 20.5t45 55.5t31 81.5t21.5 98.5l60 347q12 67 44.5 122.5t74 95t85.5 61t79 21.5h159l-20 -119h-106q-32 0 -58.5 -18.5t-46 -48t-33 -66t-19.5 -72.5l-62 -357q-16 -70 -40 -119t-52 -82t-55 -51.5t-48 -26.5l-2 -10q19 -7 39 -28 t35.5 -58.5t21.5 -92t-2 -128.5l-57 -328q-7 -37 -6 -74.5t10.5 -68t28 -49.5t47.5 -19h110l-21 -119h-159q-44 0 -81.5 22t-62.5 62t-35.5 95.5t1.5 123.5l58 336q10 54 14 102.5t-2.5 85.5t-25 59t-55.5 22h-66z" />
<glyph unicode="|" horiz-adv-x="1037" d="M366 -452l353 2030h131l-353 -2030h-131z" />
<glyph unicode="}" horiz-adv-x="682" d="M6 -306l21 119h110q29 0 54.5 19t45 49.5t33.5 68t21 74.5l57 328q16 74 41 128.5t53.5 92t56.5 58.5t49 28l2 10q-19 8 -40 26.5t-37 51.5t-23 82t1 119l62 357q6 36 5.5 72.5t-10 66t-29 48t-51.5 18.5h-106l20 119h159q35 0 72 -21.5t64.5 -61t41 -95t1.5 -122.5 l-60 -347q-9 -52 -12.5 -98.5t3 -81.5t26 -55.5t55.5 -20.5h66l-22 -124h-66q-37 0 -63.5 -22t-45 -59t-31.5 -85.5t-23 -102.5l-58 -336q-12 -68 -41.5 -123.5t-68.5 -95.5t-85 -62t-89 -22h-159z" />
<glyph unicode="~" horiz-adv-x="1244" d="M163 525q25 38 63.5 77t86 70.5t101.5 51t113 19.5q67 0 122 -21t105.5 -46.5t101 -46.5t108.5 -21q63 0 114 24t93 62q15 13 29 33l83 -82q-26 -37 -62 -72.5t-81 -63t-97.5 -44t-111.5 -16.5q-42 0 -79.5 10t-72.5 25t-69 33t-68 33t-70.5 25t-76.5 10 q-58 0 -106.5 -23t-89.5 -62q-12 -11 -19 -21.5t-19 -30.5z" />
<glyph unicode="&#xa1;" horiz-adv-x="493" d="M59 -482l238 1157h142l-178 -1157h-202zM305 977q4 25 17 47t31 38t40 25.5t45 9.5t42.5 -9.5t32 -25.5t18 -38t1.5 -47t-17.5 -47t-31.5 -38t-41 -25.5t-46 -9.5t-41.5 9.5t-31 25.5t-17.5 38t-1 47z" />
<glyph unicode="&#xa2;" horiz-adv-x="886" d="M186 486q-1 62 10 125q17 99 61 188.5t111 157t156 107t196 39.5h8l39 132l90 -10l-38 -128q1 -2 3 -2q47 -6 85 -24.5t70 -49t57 -77.5l-131 -104q-27 40 -49 65t-48 39q-13 8 -28 14l-208 -704q38 -3 72.5 2.5t66.5 23.5t65.5 48t71.5 78l108 -95q-45 -57 -92.5 -95.5 t-97 -60.5t-103.5 -32t-116 -10h-18l-42 -145l-90 13l42 144q-11 3 -24 8q-58 19 -100.5 53t-70.5 81t-41.5 102t-14.5 117zM365.5 485.5q6.5 -67.5 32.5 -119.5t50.5 -71t32.5 -24l207 698q-64 -1 -117 -28q-53 -29 -93.5 -76t-67.5 -109t-39 -130q-12 -73 -5.5 -140.5z " />
<glyph unicode="&#xa3;" horiz-adv-x="1152" d="M171 0l8 94q54 58 107 113.5t98 112.5t77.5 117t45.5 128q6 31 9 64t1 61h-248l19 108h231q-9 49 -18 99t-14 101t-4.5 102.5t8.5 101.5q15 86 61 160.5t112.5 129t149 85.5t171.5 31q84 0 155.5 -20.5t126.5 -62.5l-108 -139q-29 23 -51.5 38t-44.5 24t-47.5 13t-60.5 4 q-57 0 -106.5 -15t-88 -46.5t-65.5 -79t-38 -111.5q-8 -48 -7 -100t7 -105.5t15.5 -106.5t17.5 -103h327l-19 -108h-306q1 -22 -2 -50t-7 -50q-14 -69 -41 -126.5t-64 -109.5t-82 -102t-96 -105h629l-25 -147h-833z" />
<glyph unicode="&#xa4;" horiz-adv-x="1370" d="M119 127l57 -70l213 182q59 -57 138.5 -88.5t174.5 -31.5q97 0 189.5 33t171.5 92l146 -184l88 66l-152 190q71 71 119.5 160t65.5 189q16 94 1.5 178.5t-55.5 153.5l208 178l-58 70l-205 -174q-59 65 -142.5 102t-186.5 37q-49 0 -98.5 -10.5t-97.5 -29t-93.5 -44 t-84.5 -54.5l-129 174l-95 -70l141 -176q-70 -72 -112.5 -156.5t-58.5 -178.5q-18 -103 0.5 -193.5t66.5 -162.5zM428 670q13 78 53.5 148t99.5 123.5t132 85t153 31.5q78 0 140.5 -32t103 -85.5t56 -123.5t2.5 -147q-14 -78 -54 -150t-99 -127t-132.5 -88.5t-152.5 -33.5 q-80 0 -142.5 33t-102.5 88.5t-55.5 127.5t-1.5 150z" />
<glyph unicode="&#xa5;" d="M215 403l19 108h361l26 149h-361l19 111h346l-306 796h184l244 -686l485 686h184l-589 -796h364l-19 -111h-379l-26 -150l379 1l-19 -108h-379l-69 -403h-172l69 403h-361z" />
<glyph unicode="&#xa6;" horiz-adv-x="1037" d="M366 -452l147 847h131l-147 -847h-131zM586 816l133 762h131l-133 -762h-131z" />
<glyph unicode="&#xa7;" horiz-adv-x="1133" d="M52 -195l123 146q24 -17 55 -37t69 -37t84 -28t101 -11q69 0 127.5 11.5t103.5 35.5t74 61.5t38 90.5q10 60 4 98t-29 63t-62.5 41t-96.5 31q-31 8 -66.5 16.5t-72.5 17.5q-84 20 -150 44.5t-108.5 62.5t-59 93.5t-2.5 136.5q17 99 74 185.5t163 149.5q-42 23 -68.5 51.5 t-40 62.5t-16 72.5t4.5 80.5q18 101 70 170.5t127 113t167.5 62.5t191.5 19q93 0 157.5 -16t112 -42t81 -58.5t63.5 -66.5l-120 -133q-32 34 -66 65t-73.5 55t-84.5 38t-97 14q-50 0 -105.5 -10.5t-104 -34t-84 -60t-44.5 -88.5q-5 -28 -2.5 -55t14 -50t34 -41.5t57.5 -30.5 q135 -33 253 -67q84 -26 150 -61.5t109.5 -80t61.5 -98t7 -114.5q-9 -54 -31.5 -99.5t-55.5 -84.5t-77 -71.5t-95 -61.5q44 -24 71.5 -57.5t40 -72t14 -80.5t-6.5 -83q-17 -100 -73 -170t-137 -114.5t-179 -64.5t-199 -20q-46 0 -100.5 5.5t-108.5 18.5t-103.5 34.5 t-83.5 52.5zM371 592.5q10 -34.5 34.5 -55.5t61.5 -33t82 -25q114 -34 259 -69q33 24 63 47.5t54 49.5t40.5 55.5t23.5 65.5q9 52 -5.5 92.5t-45.5 70.5t-74 50.5t-90 32.5q-109 29 -215 55q-32 -17 -62 -41t-55.5 -54t-44 -67.5t-26.5 -81.5q-10 -58 0 -92.5z" />
<glyph unicode="&#xa8;" horiz-adv-x="0" d="M-95 1305q7 40 39 66t71 26q41 0 62 -28t15 -66q-4 -20 -14 -37.5t-24 -30.5t-32.5 -21t-38.5 -8t-36 8.5t-26 22.5t-14.5 31.5t-1.5 36.5zM360 1305q7 40 39 66t72 26q41 0 62 -28t15 -66q-4 -20 -14 -37.5t-24 -30.5t-32.5 -21t-39.5 -8q-20 0 -36 8.5t-26 22.5 t-14.5 31.5t-1.5 36.5z" />
<glyph unicode="&#xa9;" horiz-adv-x="1794" d="M231.5 571.5q-10.5 104.5 9.5 217.5q19 113 65.5 217.5t114 195.5t152.5 166t182 128t204 82.5t216 29.5q110 0 206 -29.5t175 -82.5t138.5 -128t95 -166t46 -195.5t-8.5 -217.5q-20 -113 -66.5 -217.5t-114 -195.5t-153 -166t-182.5 -128t-204 -82.5t-217 -29.5 q-109 0 -205 29.5t-175 82.5t-138 128t-94.5 166t-46 195.5zM363 603q8 -90 37.5 -168.5t78.5 -143t114.5 -110.5t145.5 -71.5t171 -25.5q92 0 181.5 25.5t171 71.5t153.5 110.5t129 143t96.5 168t56.5 186.5q16 97 8 187t-37.5 168.5t-79.5 143t-115.5 110.5t-146 71 t-172.5 25q-91 0 -180 -25t-170.5 -71t-152.5 -110.5t-128 -143t-96.5 -168.5t-55.5 -187q-17 -96 -9 -186zM589 801q22 128 73.5 229.5t124 172t160.5 107.5t184 37q41 0 79.5 -5t74 -18t69.5 -35.5t67 -56.5l-105 -111q-23 22 -42 39t-41.5 28.5t-51 17t-69.5 5.5 q-52 0 -107.5 -21.5t-105 -68.5t-88 -120.5t-56.5 -177.5q-16 -97 -1.5 -176t50 -135.5t85 -87.5t102.5 -31q48 0 82.5 7t62.5 21.5t53.5 35.5t53.5 49l100 -82q-47 -53 -90.5 -86t-88 -52t-93 -26t-105.5 -7q-95 0 -173 43t-130 117t-73 174t-1 214z" />
<glyph unicode="&#xaa;" horiz-adv-x="983" d="M239 873q12 66 41.5 114.5t74.5 83.5t102 58.5t122.5 39.5t138 26t147.5 18l18 105q12 69 -26.5 105.5t-109.5 36.5q-34 0 -66.5 -5t-68.5 -18t-77.5 -35.5t-93.5 -57.5l-46 102q52 33 97.5 56.5t88.5 37.5t86 20.5t89 6.5q90 0 146.5 -18.5t87 -52.5t37.5 -82t-3 -106 l-78 -449q-6 -31 -5.5 -51t7.5 -31t20 -15.5t34 -4.5q8 0 24 1t34 4l10 -64q-27 -21 -74 -34.5t-100 -13.5q-45 0 -76 30t-28 92q-57 -35 -102.5 -58.5t-86.5 -37.5t-79.5 -20t-79.5 -6q-55 0 -97 15t-69 44t-37.5 70t-1.5 94zM394 898q-12 -69 22.5 -104.5t103.5 -35.5 q31 0 61 6.5t64 21t73.5 36.5t87.5 53l42 240q-101 -10 -180.5 -22t-136.5 -34.5t-91.5 -60.5t-45.5 -100z" />
<glyph unicode="&#xab;" horiz-adv-x="1221" d="M173 533l2 12l467 437l75 -75l-352 -361l-1 -8l216 -360l-96 -75zM659 533l2 12l467 437l75 -75l-352 -361l-1 -8l216 -360l-96 -75z" />
<glyph unicode="&#xac;" horiz-adv-x="1379" d="M201 657h1048l-94 -538h130l116 669h-1178z" />
<glyph unicode="&#xad;" horiz-adv-x="748" d="M221 665l46 123h526l-46 -123h-526z" />
<glyph unicode="&#xae;" horiz-adv-x="1794" d="M231.5 571.5q-10.5 104.5 9.5 217.5q19 113 65.5 217.5t114 195.5t152.5 166t182 128t204 82.5t216 29.5q110 0 206 -29.5t175 -82.5t138.5 -128t95 -166t46 -195.5t-8.5 -217.5q-20 -113 -66.5 -217.5t-114 -195.5t-153 -166t-182.5 -128t-204 -82.5t-217 -29.5 q-109 0 -205 29.5t-175 82.5t-138 128t-94.5 166t-46 195.5zM363 603q8 -90 37.5 -168.5t78.5 -143t114.5 -110.5t145.5 -71.5t171 -25.5q92 0 181.5 25.5t171 71.5t153.5 110.5t129 143t96.5 168t56.5 186.5q16 97 8 187t-37.5 168.5t-79.5 143t-115.5 110.5t-146 71 t-172.5 25q-91 0 -180 -25t-170.5 -71t-152.5 -110.5t-128 -143t-96.5 -168.5t-55.5 -187q-17 -96 -9 -186zM623 264l184 1060h286q81 0 146 -15t108.5 -51t60.5 -96t1 -150q-5 -28 -21 -67.5t-46 -79.5t-75.5 -74.5t-108.5 -52.5l156 -474h-162l-136 451q-10 -1 -20 -1.5 t-28 -1t-47.5 0t-77.5 0.5l-78 -449h-142zM862 826q28 0 56 -0.5t56 -0.5q64 0 114 10.5t86.5 33.5t60 61t32.5 92q9 50 2.5 85.5t-33.5 58t-78 32.5t-130 10h-100z" />
<glyph unicode="&#xaf;" horiz-adv-x="0" d="M-62 1206l22 125h544l-22 -125h-544z" />
<glyph unicode="&#xb0;" horiz-adv-x="651" d="M333 1447q9 51 35.5 95.5t65.5 77.5t86.5 52t97.5 19t91.5 -19t68.5 -52t39 -77.5t3 -95.5q-9 -50 -36 -94.5t-66 -77.5t-86.5 -52t-97.5 -19t-91.5 19t-68.5 52t-38 77.5t-3 94.5zM440 1387.5q5 -29.5 20 -51t37.5 -34t50.5 -12.5q31 0 58.5 12.5t49 34t37 51t20.5 62.5 q6 32 1 60.5t-19.5 49.5t-38 33t-54.5 12q-28 0 -54.5 -12t-48.5 -33t-37.5 -49.5t-21.5 -60.5q-5 -33 0 -62.5z" />
<glyph unicode="&#xb1;" horiz-adv-x="1235" d="M170 35l22 130h912l-22 -130h-912zM235 781l23 131h450l82 474h131l-82 -474h452l-23 -131h-452l-84 -487h-131l84 487h-450z" />
<glyph unicode="&#xb2;" horiz-adv-x="890" d="M209 672l18 100q31 61 71.5 103.5t89 75.5t104 60t117.5 58q57 28 99 51t71.5 47.5t47.5 54.5t25 73q6 35 2.5 64.5t-22 50.5t-53.5 32.5t-92 11.5q-24 0 -54.5 -8t-62.5 -23t-63.5 -36.5t-58.5 -48.5l-70 110q38 30 78 54.5t83 42t90 27t100 9.5q73 0 132 -18.5 t98.5 -52.5t56.5 -81.5t7 -105.5q-13 -78 -51.5 -135t-89.5 -98t-108.5 -70t-109.5 -52q-50 -22 -92 -42.5t-73.5 -40.5t-50.5 -39t-22 -38h516l-24 -136h-709z" />
<glyph unicode="&#xb3;" horiz-adv-x="898" d="M229 744l100 120q12 -12 32.5 -25.5t47.5 -25t59.5 -18.5t70.5 -7q61 0 110.5 8.5t86.5 27t59.5 47t29.5 68.5q9 55 -8.5 84.5t-57 42.5t-98 15t-131.5 3l21 116q63 0 116.5 7.5t95.5 25t68 45t33 67.5q10 60 -40.5 85.5t-148.5 25.5q-72 0 -128.5 -23t-104.5 -60 l-70 110q27 20 60 37.5t73 31t89 21.5t109 8q77 0 141.5 -14t110 -41.5t67.5 -68t13 -92.5q-9 -47 -27 -79.5t-46 -56t-66.5 -40t-87.5 -31.5q48 -8 87 -25t64.5 -44.5t35 -67t0.5 -91.5q-13 -74 -50 -125.5t-99 -83.5t-148.5 -46.5t-197.5 -14.5q-54 0 -97.5 8t-77.5 20.5 t-58 27.5t-38 28z" />
<glyph unicode="&#xb4;" horiz-adv-x="0" d="M16 1267l366 345l95 -125l-411 -280z" />
<glyph unicode="&#xb5;" horiz-adv-x="1169" d="M56 -453l266 1533h158l-131 -752q-7 -47 3 -85.5t33 -65t56 -40t70 -13.5q103 0 189 28.5t171 85.5l146 842h158l-163 -939q-11 -65 -10 -141h-161q-1 9 0 22.5t1.5 29.5t2 32t3.5 28q-54 -32 -103 -56t-96 -40t-94.5 -24.5t-98.5 -8.5q-85 0 -115.5 16t-44.5 20 l-82 -472h-158z" />
<glyph unicode="&#xb6;" horiz-adv-x="1133" d="M308 994.5q-15 75.5 2 171.5q18 102 60.5 177t114.5 125t177.5 74.5t248.5 24.5q25 0 62.5 -3t67.5 -6l-270 -1558h-114l131 758h-126q-102 0 -176 28t-118.5 80.5t-59.5 128zM864 0h112l272 1567l-114 -8z" />
<glyph unicode="&#xb7;" horiz-adv-x="457" d="M238 690q8 44 45.5 81t88.5 37q49 0 72.5 -37t15.5 -81q-8 -50 -47 -84t-82 -34q-45 0 -73 34t-20 84z" />
<glyph unicode="&#xb8;" horiz-adv-x="0" d="M-303 -450l90 103q29 -29 50.5 -45t49.5 -16q20 0 41 8.5t39 24t31 37.5t17 49q4 21 1 45t-15 45t-36.5 37t-64.5 21l57 143h106l-43 -82q33 -10 60.5 -27t45.5 -42.5t25 -59.5t-1 -79q-8 -47 -32.5 -89t-61.5 -73.5t-84.5 -50t-101.5 -18.5q-29 0 -51.5 4t-42 12 t-39 21.5t-40.5 31.5z" />
<glyph unicode="&#xb9;" horiz-adv-x="716" d="M219 689l23 129h192l101 583l-216 -128l29 169l254 139h128l-132 -763h170l-23 -129h-526z" />
<glyph unicode="&#xba;" horiz-adv-x="1075" d="M307 955q-12 89 7 199q15 86 56 167.5t105 145.5t151 102.5t194 38.5q103 0 174 -36.5t112 -100t52 -150t-6 -185.5q-17 -96 -61 -180.5t-109 -147.5t-147 -99.5t-174 -36.5q-107 0 -181.5 34t-117.5 97t-55 152zM445.5 1011q6.5 -64 33 -115.5t75 -83.5t120.5 -32 q69 0 126.5 32.5t101.5 86t73.5 122.5t41.5 142q12 68 5.5 129.5t-33.5 108t-75 73.5t-117 27q-71 0 -128.5 -27.5t-101.5 -76.5t-73.5 -115t-43.5 -144q-11 -63 -4.5 -127z" />
<glyph unicode="&#xbb;" horiz-adv-x="1258" d="M220 178l342 360l1 8l-226 361l101 75l315 -437l-2 -12l-461 -430zM733 178l342 360l1 8l-226 361l101 75l315 -437l-2 -12l-461 -430z" />
<glyph unicode="&#xbc;" horiz-adv-x="1681" d="M207 25l1564 1587l83 -60l-1564 -1588zM219 689l23 129h192l101 583l-216 -128l29 169l254 139h128l-132 -763h170l-23 -129h-526zM886 233l9 49l546 592h150l-89 -513h158l-23 -128h-157l-41 -237h-169l41 237h-425zM1081 361h253l60 347z" />
<glyph unicode="&#xbd;" horiz-adv-x="1894" d="M219 689l23 129h192l101 583l-216 -128l29 169l254 139h128l-132 -763h170l-23 -129h-526zM224 23l1564 1587l83 -60l-1564 -1588zM1090 1l18 100q31 61 71.5 103.5t89 75.5t104 60t117.5 58q57 28 99 51t71.5 47.5t47.5 54.5t25 73q6 35 2.5 64.5t-22 50.5t-53.5 32.5 t-92 11.5q-24 0 -54.5 -8t-62.5 -23t-63.5 -36.5t-58.5 -48.5l-70 110q38 30 78 54.5t83 42t90 27t100 9.5q73 0 132 -18.5t98.5 -52.5t56.5 -81.5t7 -105.5q-13 -78 -51.5 -135t-89.5 -98t-108.5 -70t-109.5 -52q-50 -22 -92 -42.5t-73.5 -40.5t-50.5 -39t-22 -38h516 l-24 -136h-709z" />
<glyph unicode="&#xbe;" horiz-adv-x="1840" d="M229 744l100 120q12 -12 32.5 -25.5t47.5 -25t59.5 -18.5t70.5 -7q61 0 110.5 8.5t86.5 27t59.5 47t29.5 68.5q9 55 -8.5 84.5t-57 42.5t-98 15t-131.5 3l21 116q63 0 116.5 7.5t95.5 25t68 45t33 67.5q10 60 -40.5 85.5t-148.5 25.5q-72 0 -128.5 -23t-104.5 -60 l-70 110q27 20 60 37.5t73 31t89 21.5t109 8q77 0 141.5 -14t110 -41.5t67.5 -68t13 -92.5q-9 -47 -27 -79.5t-46 -56t-66.5 -40t-87.5 -31.5q48 -8 87 -25t64.5 -44.5t35 -67t0.5 -91.5q-13 -74 -50 -125.5t-99 -83.5t-148.5 -46.5t-197.5 -14.5q-54 0 -97.5 8t-77.5 20.5 t-58 27.5t-38 28zM356 23l1564 1587l83 -60l-1564 -1588zM1057 236l9 49l546 592h150l-89 -513h158l-23 -128h-157l-41 -237h-169l41 237h-425zM1252 364h253l60 347z" />
<glyph unicode="&#xbf;" horiz-adv-x="996" d="M148.5 -172q-14.5 84 5.5 199q13 75 39.5 134.5t60.5 107t74.5 85t81.5 68.5t80.5 57.5t73.5 53.5q32 25 52 52.5t32.5 59.5t20.5 71.5t17 90.5h150q-13 -71 -27 -126t-37 -101t-59 -86.5t-91 -81.5q-65 -49 -116 -86t-88.5 -79t-63 -98.5t-40.5 -143.5q-9 -56 -5 -107 t28 -89.5t69 -61.5t117 -23q27 0 58.5 6t63.5 18.5t64.5 32t60.5 45.5l77 -106q-74 -63 -167 -100.5t-214 -37.5q-84 0 -151 26.5t-109.5 81t-57 138.5zM703 1042.5q-5 21.5 0 46.5q4 24 16 45.5t30 37.5t39.5 25t44.5 9t42 -9t31 -25t17.5 -37.5t1.5 -45.5 q-5 -25 -17.5 -46.5t-30.5 -37.5t-40 -25t-45 -9t-41.5 9t-30.5 25t-17 37.5z" />
<glyph unicode="&#xc0;" horiz-adv-x="1277" d="M30 0l808 1567h165l248 -1567h-188l-75 534h-529l-260 -534h-169zM515 655h459l-100 716zM659 1967l147 117l244 -346l-69 -59z" />
<glyph unicode="&#xc1;" horiz-adv-x="1277" d="M30 0l808 1567h165l248 -1567h-188l-75 534h-529l-260 -534h-169zM515 655h459l-100 716zM820 1735l366 345l95 -125l-411 -280z" />
<glyph unicode="&#xc2;" horiz-adv-x="1277" d="M30 0l808 1567h165l248 -1567h-188l-75 534h-529l-260 -534h-169zM515 655h459l-100 716zM602 1686l354 337h68l238 -338l-71 -60l-231 223l-308 -223z" />
<glyph unicode="&#xc3;" horiz-adv-x="1277" d="M30 0l808 1567h165l248 -1567h-188l-75 534h-529l-260 -534h-169zM515 655h459l-100 716zM592 1714q16 37 44 72.5t63.5 63.5t76.5 45t83 17q46 0 75.5 -17.5t52.5 -39t44.5 -39t52.5 -17.5q36 0 75 17.5t67 58.5l10 16t11 17l72 -42q-19 -38 -44.5 -72.5t-59 -61.5 t-73 -43t-84.5 -16q-38 0 -66 18t-53 39t-50.5 39t-56.5 18q-35 0 -72.5 -17t-63.5 -52q-8 -11 -13 -19t-16 -24z" />
<glyph unicode="&#xc4;" horiz-adv-x="1277" d="M30 0l808 1567h165l248 -1567h-188l-75 534h-529l-260 -534h-169zM515 655h459l-100 716zM611 1639q7 40 39 66t71 26q41 0 62 -28t15 -66q-4 -20 -14 -37.5t-24 -30.5t-32.5 -21t-38.5 -8t-36 8.5t-26 22.5t-14.5 31.5t-1.5 36.5zM1066 1639q7 40 39 66t72 26 q41 0 62 -28t15 -66q-4 -20 -14 -37.5t-24 -30.5t-32.5 -21t-39.5 -8q-20 0 -36 8.5t-26 22.5t-14.5 31.5t-1.5 36.5z" />
<glyph unicode="&#xc5;" horiz-adv-x="1277" d="M30 0l808 1567h165l248 -1567h-188l-75 534h-529l-260 -534h-169zM515 655h459l-100 716zM706 1751q9 51 35.5 95.5t65.5 77.5t86.5 52t97.5 19t91.5 -19t68.5 -52t39 -77.5t3 -95.5q-9 -50 -36 -94.5t-66 -77.5t-86.5 -52t-97.5 -19t-91.5 19t-68.5 52t-38 77.5t-3 94.5 zM813 1691.5q5 -29.5 20 -51t37.5 -34t50.5 -12.5q31 0 58.5 12.5t49 34t37 51t20.5 62.5q6 32 1 60.5t-19.5 49.5t-38 33t-54.5 12q-28 0 -54.5 -12t-48.5 -33t-37.5 -49.5t-21.5 -60.5q-5 -33 0 -62.5z" />
<glyph unicode="&#xc6;" horiz-adv-x="1936" d="M61 0l1129 1569h931l-23 -131h-677l-95 -548h541l-21 -122h-541l-111 -637h707l-22 -131h-877l93 536h-472l-379 -536h-183zM702 657h414l128 739h-14z" />
<glyph unicode="&#xc7;" horiz-adv-x="1358" d="M298 797q58 337 266.5 574t512.5 237q177 0 259.5 -38t169.5 -139l-126 -112q-65 75 -135.5 110t-197.5 35q-205 0 -362.5 -190t-203.5 -451q-59 -340 50 -522t287 -182q168 0 266 62t159 133l111 -88q-98 -107 -221 -179t-340 -72q-297 0 -427.5 229.5t-67.5 592.5z M487 -450l90 103q29 -29 50.5 -45t49.5 -16q20 0 41 8.5t39 24t31 37.5t17 49q4 21 1 45t-15 45t-36.5 37t-64.5 21l57 143h106l-43 -82q33 -10 60.5 -27t45.5 -42.5t25 -59.5t-1 -79q-8 -47 -32.5 -89t-61.5 -73.5t-84.5 -50t-101.5 -18.5q-29 0 -51.5 4t-42 12t-39 21.5 t-40.5 31.5z" />
<glyph unicode="&#xc8;" horiz-adv-x="1107" d="M150 0l272 1567h837l-24 -138h-667l-93 -534h532l-23 -131h-532l-109 -626h697l-23 -138h-867zM658 1962l147 117l244 -346l-69 -59z" />
<glyph unicode="&#xc9;" horiz-adv-x="1107" d="M150 0l272 1567h837l-24 -138h-667l-93 -534h532l-23 -131h-532l-109 -626h697l-23 -138h-867zM685 1735l366 345l95 -125l-411 -280z" />
<glyph unicode="&#xca;" horiz-adv-x="1107" d="M150 0l272 1567h837l-24 -138h-667l-93 -534h532l-23 -131h-532l-109 -626h697l-23 -138h-867zM537 1735l354 337h68l238 -338l-71 -60l-231 223l-308 -223z" />
<glyph unicode="&#xcb;" horiz-adv-x="1107" d="M150 0l272 1567h837l-24 -138h-667l-93 -534h532l-23 -131h-532l-109 -626h697l-23 -138h-867zM559 1774q7 40 39 66t71 26q41 0 62 -28t15 -66q-4 -20 -14 -37.5t-24 -30.5t-32.5 -21t-38.5 -8t-36 8.5t-26 22.5t-14.5 31.5t-1.5 36.5zM1014 1774q7 40 39 66t72 26 q41 0 62 -28t15 -66q-4 -20 -14 -37.5t-24 -30.5t-32.5 -21t-39.5 -8q-20 0 -36 8.5t-26 22.5t-14.5 31.5t-1.5 36.5z" />
<glyph unicode="&#xcc;" horiz-adv-x="474" d="M150 0l272 1567h170l-272 -1567h-170zM259 1962l147 117l244 -346l-69 -59z" />
<glyph unicode="&#xcd;" horiz-adv-x="472" d="M150 0l272 1567h170l-272 -1567h-170zM401 1732l366 345l95 -125l-411 -280z" />
<glyph unicode="&#xce;" horiz-adv-x="474" d="M150 0l272 1567h170l-272 -1567h-170zM204 1692l354 337h68l238 -338l-71 -60l-231 223l-308 -223z" />
<glyph unicode="&#xcf;" horiz-adv-x="473" d="M150 0l272 1567h170l-272 -1567h-170zM224 1743q7 40 39 66t71 26q41 0 62 -28t15 -66q-4 -20 -14 -37.5t-24 -30.5t-32.5 -21t-38.5 -8t-36 8.5t-26 22.5t-14.5 31.5t-1.5 36.5zM679 1743q7 40 39 66t72 26q41 0 62 -28t15 -66q-4 -20 -14 -37.5t-24 -30.5t-32.5 -21 t-39.5 -8q-20 0 -36 8.5t-26 22.5t-14.5 31.5t-1.5 36.5z" />
<glyph unicode="&#xd0;" horiz-adv-x="1358" d="M150 0l131 756h-130l23 131h130l118 680h335q135 0 237.5 -27t176.5 -76.5t121 -118.5t70 -153t23.5 -180.5t-16.5 -199.5q-19 -109 -54 -211.5t-87.5 -192.5t-124.5 -165t-165 -129t-208.5 -84t-255.5 -30h-324zM342 130h127q127 0 242.5 38t210.5 120.5t163 212.5 t100 315q23 130 11.5 243t-67.5 197t-160.5 132.5t-268.5 48.5h-131l-95 -550h349l-23 -131h-349z" />
<glyph unicode="&#xd1;" horiz-adv-x="1419" d="M150 0l271 1567h170l554 -1293l225 1293h170l-272 -1567h-163l-563 1287l-223 -1287h-169zM677 1710q16 37 44 72.5t63.5 63.5t76.5 45t83 17q46 0 75.5 -17.5t52.5 -39t44.5 -39t52.5 -17.5q36 0 75 17.5t67 58.5l10 16t11 17l72 -42q-19 -38 -44.5 -72.5t-59 -61.5 t-73 -43t-84.5 -16q-38 0 -66 18t-53 39t-50.5 39t-56.5 18q-35 0 -72.5 -17t-63.5 -52q-8 -11 -13 -19t-16 -24z" />
<glyph unicode="&#xd2;" horiz-adv-x="1643" d="M254.5 458q-19.5 151 13.5 337q31 179 110 328.5t191.5 257t250.5 167.5t287 60q152 0 268.5 -54.5t189 -156.5t97 -248.5t-6.5 -330.5q-21 -119 -62.5 -227.5t-100 -202.5t-133 -170t-161 -130t-183 -83.5t-199.5 -29.5q-166 0 -285 58.5t-188 166t-88.5 258.5z M437 531.5q13 -126.5 62 -218t133 -143t200 -51.5t221.5 55t190 147.5t144 214t82.5 255.5q26 151 14 275t-61 212.5t-135 137t-208 48.5q-108 0 -210 -46.5t-187 -132t-146 -206.5t-87 -270q-26 -151 -13 -277.5zM849 1962l147 117l244 -346l-69 -59z" />
<glyph unicode="&#xd3;" horiz-adv-x="1643" d="M254.5 458q-19.5 151 13.5 337q31 179 110 328.5t191.5 257t250.5 167.5t287 60q152 0 268.5 -54.5t189 -156.5t97 -248.5t-6.5 -330.5q-21 -119 -62.5 -227.5t-100 -202.5t-133 -170t-161 -130t-183 -83.5t-199.5 -29.5q-166 0 -285 58.5t-188 166t-88.5 258.5z M437 531.5q13 -126.5 62 -218t133 -143t200 -51.5t221.5 55t190 147.5t144 214t82.5 255.5q26 151 14 275t-61 212.5t-135 137t-208 48.5q-108 0 -210 -46.5t-187 -132t-146 -206.5t-87 -270q-26 -151 -13 -277.5zM995 1735l366 345l95 -125l-411 -280z" />
<glyph unicode="&#xd4;" horiz-adv-x="1643" d="M254.5 458q-19.5 151 13.5 337q31 179 110 328.5t191.5 257t250.5 167.5t287 60q152 0 268.5 -54.5t189 -156.5t97 -248.5t-6.5 -330.5q-21 -119 -62.5 -227.5t-100 -202.5t-133 -170t-161 -130t-183 -83.5t-199.5 -29.5q-166 0 -285 58.5t-188 166t-88.5 258.5z M437 531.5q13 -126.5 62 -218t133 -143t200 -51.5t221.5 55t190 147.5t144 214t82.5 255.5q26 151 14 275t-61 212.5t-135 137t-208 48.5q-108 0 -210 -46.5t-187 -132t-146 -206.5t-87 -270q-26 -151 -13 -277.5zM791 1739l354 337h68l238 -338l-71 -60l-231 223l-308 -223 z" />
<glyph unicode="&#xd5;" horiz-adv-x="1643" d="M254.5 458q-19.5 151 13.5 337q31 179 110 328.5t191.5 257t250.5 167.5t287 60q152 0 268.5 -54.5t189 -156.5t97 -248.5t-6.5 -330.5q-21 -119 -62.5 -227.5t-100 -202.5t-133 -170t-161 -130t-183 -83.5t-199.5 -29.5q-166 0 -285 58.5t-188 166t-88.5 258.5z M437 531.5q13 -126.5 62 -218t133 -143t200 -51.5t221.5 55t190 147.5t144 214t82.5 255.5q26 151 14 275t-61 212.5t-135 137t-208 48.5q-108 0 -210 -46.5t-187 -132t-146 -206.5t-87 -270q-26 -151 -13 -277.5zM762 1717q16 37 44 72.5t63.5 63.5t76.5 45t83 17 q46 0 75.5 -17.5t52.5 -39t44.5 -39t52.5 -17.5q36 0 75 17.5t67 58.5l10 16t11 17l72 -42q-19 -38 -44.5 -72.5t-59 -61.5t-73 -43t-84.5 -16q-38 0 -66 18t-53 39t-50.5 39t-56.5 18q-35 0 -72.5 -17t-63.5 -52q-8 -11 -13 -19t-16 -24z" />
<glyph unicode="&#xd6;" horiz-adv-x="1643" d="M254.5 458q-19.5 151 13.5 337q31 179 110 328.5t191.5 257t250.5 167.5t287 60q152 0 268.5 -54.5t189 -156.5t97 -248.5t-6.5 -330.5q-21 -119 -62.5 -227.5t-100 -202.5t-133 -170t-161 -130t-183 -83.5t-199.5 -29.5q-166 0 -285 58.5t-188 166t-88.5 258.5z M437 531.5q13 -126.5 62 -218t133 -143t200 -51.5t221.5 55t190 147.5t144 214t82.5 255.5q26 151 14 275t-61 212.5t-135 137t-208 48.5q-108 0 -210 -46.5t-187 -132t-146 -206.5t-87 -270q-26 -151 -13 -277.5zM817 1771q7 40 39 66t71 26q41 0 62 -28t15 -66 q-4 -20 -14 -37.5t-24 -30.5t-32.5 -21t-38.5 -8t-36 8.5t-26 22.5t-14.5 31.5t-1.5 36.5zM1272 1771q7 40 39 66t72 26q41 0 62 -28t15 -66q-4 -20 -14 -37.5t-24 -30.5t-32.5 -21t-39.5 -8q-20 0 -36 8.5t-26 22.5t-14.5 31.5t-1.5 36.5z" />
<glyph unicode="&#xd7;" horiz-adv-x="1226" d="M111 66l505 491l-319 471l115 86l314 -457l469 455l92 -81l-487 -474l336 -494l-124 -89l-321 484l-495 -482z" />
<glyph unicode="&#xd8;" horiz-adv-x="1653" d="M84 4l230 242q-54 104 -66.5 241.5t16.5 305.5q31 178 110 328t191 258t249.5 168.5t285.5 60.5q117 0 213 -33.5t167 -96.5l189 198l87 -81l-196 -207q70 -102 92 -246.5t-10 -324.5q-31 -179 -107 -332t-186 -266t-247.5 -177t-291.5 -64q-143 0 -249 43t-177 124 l-212 -222zM430 587.5q5 -101.5 34 -183.5l891 942q-50 53 -120.5 80.5t-163.5 27.5q-106 0 -207.5 -46t-186 -131t-145.5 -204t-86 -266q-21 -118 -16 -219.5zM518 287q51 -75 128.5 -115t180.5 -40q113 0 217.5 53.5t188.5 144t143.5 209.5t82.5 250q24 139 15.5 255 t-50.5 201z" />
<glyph unicode="&#xd9;" horiz-adv-x="1473" d="M230 276.5q-15 100.5 9 236.5l183 1054h170l-185 -1064q-16 -93 -5 -163t52.5 -117.5t115 -71t181.5 -23.5q120 0 205 23.5t143 71t92 118t50 164.5l185 1062h169l-183 -1051q-23 -131 -73.5 -231.5t-134 -168.5t-204.5 -103t-285 -35q-150 0 -252 32.5t-160 99t-73 167z M791 1937l147 117l244 -346l-69 -59z" />
<glyph unicode="&#xda;" horiz-adv-x="1473" d="M230 276.5q-15 100.5 9 236.5l183 1054h170l-185 -1064q-16 -93 -5 -163t52.5 -117.5t115 -71t181.5 -23.5q120 0 205 23.5t143 71t92 118t50 164.5l185 1062h169l-183 -1051q-23 -131 -73.5 -231.5t-134 -168.5t-204.5 -103t-285 -35q-150 0 -252 32.5t-160 99t-73 167z M867 1706l366 345l95 -125l-411 -280z" />
<glyph unicode="&#xdb;" horiz-adv-x="1473" d="M230 276.5q-15 100.5 9 236.5l183 1054h170l-185 -1064q-16 -93 -5 -163t52.5 -117.5t115 -71t181.5 -23.5q120 0 205 23.5t143 71t92 118t50 164.5l185 1062h169l-183 -1051q-23 -131 -73.5 -231.5t-134 -168.5t-204.5 -103t-285 -35q-150 0 -252 32.5t-160 99t-73 167z M684 1715l354 337h68l238 -338l-71 -60l-231 223l-308 -223z" />
<glyph unicode="&#xdc;" horiz-adv-x="1473" d="M230 276.5q-15 100.5 9 236.5l183 1054h170l-185 -1064q-16 -93 -5 -163t52.5 -117.5t115 -71t181.5 -23.5q120 0 205 23.5t143 71t92 118t50 164.5l185 1062h169l-183 -1051q-23 -131 -73.5 -231.5t-134 -168.5t-204.5 -103t-285 -35q-150 0 -252 32.5t-160 99t-73 167z M712 1739q7 40 39 66t71 26q41 0 62 -28t15 -66q-4 -20 -14 -37.5t-24 -30.5t-32.5 -21t-38.5 -8t-36 8.5t-26 22.5t-14.5 31.5t-1.5 36.5zM1167 1739q7 40 39 66t72 26q41 0 62 -28t15 -66q-4 -20 -14 -37.5t-24 -30.5t-32.5 -21t-39.5 -8q-20 0 -36 8.5t-26 22.5 t-14.5 31.5t-1.5 36.5z" />
<glyph unicode="&#xdd;" d="M319 1567h184l241 -704l488 704h184l-610 -835l-127 -732h-172l124 715zM841 1662l366 345l95 -125l-411 -280z" />
<glyph unicode="&#xde;" horiz-adv-x="1159" d="M152 0l272 1567h170l-54 -307h115q141 0 239.5 -33t156.5 -93.5t76 -145.5t0 -188q-6 -39 -24 -87t-50 -97.5t-80 -96.5t-114.5 -83.5t-153.5 -59t-197 -22.5h-125l-61 -354h-170zM405 480h136q87 0 158 27t124 72.5t86 105.5t44 126q12 69 3 128t-49.5 102.5 t-116.5 68.5t-199 25h-72z" />
<glyph unicode="&#xdf;" horiz-adv-x="1142" d="M162 0l192 1111q17 95 59.5 178t105 145t144 97.5t176.5 35.5q78 0 140.5 -18.5t104 -56.5t59 -95.5t3.5 -135.5q-8 -46 -30.5 -84t-50.5 -69.5t-58.5 -57.5t-52.5 -47q-23 -22 -43.5 -41t-36.5 -38.5t-27 -40.5t-15 -45q-6 -33 17 -59.5t60 -54t79 -59.5t76.5 -74.5 t52 -100t3.5 -135.5q-17 -97 -56.5 -167.5t-96.5 -116t-128.5 -67t-152.5 -21.5q-30 0 -67.5 5t-74 14t-67.5 21.5t-49 28.5l90 124q42 -32 91.5 -51t103.5 -19q59 0 102.5 18t73.5 50t48.5 77t27.5 98q11 62 -8 107t-51.5 80.5t-74 65.5t-75 62t-53 70t-10.5 90 q6 38 19 67.5t31 53.5t38 44t41 39q21 20 47.5 42t51 49t43 61t26.5 78q7 42 -2.5 74.5t-33 55t-59.5 34t-81 11.5q-70 0 -122 -27t-88 -71.5t-58.5 -102.5t-33.5 -121l-192 -1111h-158z" />
<glyph unicode="&#xe0;" horiz-adv-x="1173" d="M188 404q0 -105 30.5 -183.5t83 -131t122 -78.5t147.5 -26q56 0 102.5 10.5t88 33.5t81.5 61t83 93q-5 -36 -7 -58t-2 -41v-26q0 -12 0.5 -25.5t1.5 -32.5h156l-7 70q0 39 2.5 84t7 90.5t10.5 88.5t12 79l117 646q-22 7 -62 14t-84 12.5t-84 9t-61 3.5q-191 0 -330 -57.5 t-230 -153.5t-134.5 -221t-43.5 -261zM360 415q0 130 44 233.5t114 176t158 111t176 38.5q16 0 43.5 -3t55 -8.5t51.5 -12.5t35 -15l-93 -500q-6 -31 -20.5 -66t-36.5 -70.5t-51 -68.5t-65.5 -58t-79.5 -40t-92 -15q-54 0 -98 24t-75.5 65t-48.5 95t-17 114zM692 1494 l147 117l244 -346l-69 -59z" />
<glyph unicode="&#xe1;" horiz-adv-x="1173" d="M188 404q0 -105 30.5 -183.5t83 -131t122 -78.5t147.5 -26q56 0 102.5 10.5t88 33.5t81.5 61t83 93q-5 -36 -7 -58t-2 -41v-26q0 -12 0.5 -25.5t1.5 -32.5h156l-7 70q0 39 2.5 84t7 90.5t10.5 88.5t12 79l117 646q-22 7 -62 14t-84 12.5t-84 9t-61 3.5q-191 0 -330 -57.5 t-230 -153.5t-134.5 -221t-43.5 -261zM360 415q0 130 44 233.5t114 176t158 111t176 38.5q16 0 43.5 -3t55 -8.5t51.5 -12.5t35 -15l-93 -500q-6 -31 -20.5 -66t-36.5 -70.5t-51 -68.5t-65.5 -58t-79.5 -40t-92 -15q-54 0 -98 24t-75.5 65t-48.5 95t-17 114zM719 1267 l366 345l95 -125l-411 -280z" />
<glyph unicode="&#xe2;" horiz-adv-x="1173" d="M188 404q0 -105 30.5 -183.5t83 -131t122 -78.5t147.5 -26q56 0 102.5 10.5t88 33.5t81.5 61t83 93q-5 -36 -7 -58t-2 -41v-26q0 -12 0.5 -25.5t1.5 -32.5h156l-7 70q0 39 2.5 84t7 90.5t10.5 88.5t12 79l117 646q-22 7 -62 14t-84 12.5t-84 9t-61 3.5q-191 0 -330 -57.5 t-230 -153.5t-134.5 -221t-43.5 -261zM360 415q0 130 44 233.5t114 176t158 111t176 38.5q16 0 43.5 -3t55 -8.5t51.5 -12.5t35 -15l-93 -500q-6 -31 -20.5 -66t-36.5 -70.5t-51 -68.5t-65.5 -58t-79.5 -40t-92 -15q-54 0 -98 24t-75.5 65t-48.5 95t-17 114zM543 1267 l354 337h68l238 -338l-71 -60l-231 223l-308 -223z" />
<glyph unicode="&#xe3;" horiz-adv-x="1173" d="M188 404q0 -105 30.5 -183.5t83 -131t122 -78.5t147.5 -26q56 0 102.5 10.5t88 33.5t81.5 61t83 93q-5 -36 -7 -58t-2 -41v-26q0 -12 0.5 -25.5t1.5 -32.5h156l-7 70q0 39 2.5 84t7 90.5t10.5 88.5t12 79l117 646q-22 7 -62 14t-84 12.5t-84 9t-61 3.5q-191 0 -330 -57.5 t-230 -153.5t-134.5 -221t-43.5 -261zM360 415q0 130 44 233.5t114 176t158 111t176 38.5q16 0 43.5 -3t55 -8.5t51.5 -12.5t35 -15l-93 -500q-6 -31 -20.5 -66t-36.5 -70.5t-51 -68.5t-65.5 -58t-79.5 -40t-92 -15q-54 0 -98 24t-75.5 65t-48.5 95t-17 114zM521 1245 q16 37 44 72.5t63.5 63.5t76.5 45t83 17q46 0 75.5 -17.5t52.5 -39t44.5 -39t52.5 -17.5q36 0 75 17.5t67 58.5l10 16t11 17l72 -42q-19 -38 -44.5 -72.5t-59 -61.5t-73 -43t-84.5 -16q-38 0 -66 18t-53 39t-50.5 39t-56.5 18q-35 0 -72.5 -17t-63.5 -52q-8 -11 -13 -19 t-16 -24z" />
<glyph unicode="&#xe4;" horiz-adv-x="1173" d="M188 404q0 -105 30.5 -183.5t83 -131t122 -78.5t147.5 -26q56 0 102.5 10.5t88 33.5t81.5 61t83 93q-5 -36 -7 -58t-2 -41v-26q0 -12 0.5 -25.5t1.5 -32.5h156l-7 70q0 39 2.5 84t7 90.5t10.5 88.5t12 79l117 646q-22 7 -62 14t-84 12.5t-84 9t-61 3.5q-191 0 -330 -57.5 t-230 -153.5t-134.5 -221t-43.5 -261zM360 415q0 130 44 233.5t114 176t158 111t176 38.5q16 0 43.5 -3t55 -8.5t51.5 -12.5t35 -15l-93 -500q-6 -31 -20.5 -66t-36.5 -70.5t-51 -68.5t-65.5 -58t-79.5 -40t-92 -15q-54 0 -98 24t-75.5 65t-48.5 95t-17 114zM609 1305 q7 40 39 66t71 26q41 0 62 -28t15 -66q-4 -20 -14 -37.5t-24 -30.5t-32.5 -21t-38.5 -8t-36 8.5t-26 22.5t-14.5 31.5t-1.5 36.5zM1064 1305q7 40 39 66t72 26q41 0 62 -28t15 -66q-4 -20 -14 -37.5t-24 -30.5t-32.5 -21t-39.5 -8q-20 0 -36 8.5t-26 22.5t-14.5 31.5 t-1.5 36.5z" />
<glyph unicode="&#xe5;" horiz-adv-x="1173" d="M188 404q0 -105 30.5 -183.5t83 -131t122 -78.5t147.5 -26q56 0 102.5 10.5t88 33.5t81.5 61t83 93q-5 -36 -7 -58t-2 -41v-26q0 -12 0.5 -25.5t1.5 -32.5h156l-7 70q0 39 2.5 84t7 90.5t10.5 88.5t12 79l117 646q-22 7 -62 14t-84 12.5t-84 9t-61 3.5q-191 0 -330 -57.5 t-230 -153.5t-134.5 -221t-43.5 -261zM360 415q0 130 44 233.5t114 176t158 111t176 38.5q16 0 43.5 -3t55 -8.5t51.5 -12.5t35 -15l-93 -500q-6 -31 -20.5 -66t-36.5 -70.5t-51 -68.5t-65.5 -58t-79.5 -40t-92 -15q-54 0 -98 24t-75.5 65t-48.5 95t-17 114zM702 1447 q9 51 35.5 95.5t65.5 77.5t86.5 52t97.5 19t91.5 -19t68.5 -52t39 -77.5t3 -95.5q-9 -50 -36 -94.5t-66 -77.5t-86.5 -52t-97.5 -19t-91.5 19t-68.5 52t-38 77.5t-3 94.5zM809 1387.5q5 -29.5 20 -51t37.5 -34t50.5 -12.5q31 0 58.5 12.5t49 34t37 51t20.5 62.5q6 32 1 60.5 t-19.5 49.5t-38 33t-54.5 12q-28 0 -54.5 -12t-48.5 -33t-37.5 -49.5t-21.5 -60.5q-5 -33 0 -62.5z" />
<glyph unicode="&#xe6;" horiz-adv-x="1662" d="M160 253q15 82 49 141.5t84.5 102t114.5 70t136.5 46t152.5 30t163 21.5q3 17 7.5 36.5t8.5 38.5t8.5 36t8.5 29q7 41 -3.5 72.5t-33 53t-56 32.5t-70.5 11t-72.5 -6.5t-75 -22t-86 -43t-102.5 -69.5l-60 116q58 39 110.5 67.5t103 46.5t100.5 26.5t101 8.5 q66 0 112 -10.5t77.5 -30t49.5 -47t29 -61.5q62 69 144.5 109t188.5 40q107 0 178 -28.5t109 -87.5t44.5 -150t-15.5 -216l-668 -47q-16 -91 -11 -173t28.5 -144.5t66 -99.5t103.5 -37q42 0 83 7.5t81.5 26.5t81.5 51.5t82 82.5l95 -93q-60 -62 -116.5 -102.5t-110.5 -63.5 t-108 -32t-111 -9q-102 0 -170 38.5t-111 100.5q-84 -47 -147 -75t-115 -42t-96.5 -18t-89.5 -4q-59 0 -114 14t-94 46.5t-58.5 84t-6.5 126.5zM337 285q-9 -50 3.5 -83t38 -53t60 -28t71.5 -8q34 0 70.5 3t77.5 13t87.5 30t99.5 53q-23 71 -22.5 156.5t16.5 176.5l2 13 q-100 -13 -186 -29t-152 -45t-109.5 -76t-56.5 -123zM1016 670l502 46q7 61 1.5 109t-27.5 81t-62.5 50t-101.5 17q-64 0 -116.5 -25t-92.5 -66.5t-66 -96.5t-37 -115z" />
<glyph unicode="&#xe7;" horiz-adv-x="1057" d="M186 402.5q-1 69.5 12 141.5q19 111 68.5 211.5t125.5 176.5t175.5 121t219.5 45q59 0 108 -7.5t89.5 -24.5t74 -46t62.5 -72l-119 -94q-46 67 -97.5 97t-144.5 30q-80 0 -146 -34.5t-116 -93t-83.5 -134.5t-47.5 -159q-16 -88 -7 -170.5t41 -146.5t84.5 -102.5 t126.5 -38.5q116 0 186.5 40.5t133.5 111.5l97 -76q-48 -57 -98.5 -94.5t-103.5 -59.5t-111 -31t-124 -9q-84 0 -150 21.5t-113.5 60t-78.5 91t-47 114.5t-17 131.5zM285 -448l90 103q29 -29 50.5 -45t49.5 -16q20 0 41 8.5t39 24t31 37.5t17 49q4 21 1 45t-15 45t-36.5 37 t-64.5 21l57 143h106l-43 -82q33 -10 60.5 -27t45.5 -42.5t25 -59.5t-1 -79q-8 -47 -32.5 -89t-61.5 -73.5t-84.5 -50t-101.5 -18.5q-29 0 -51.5 4t-42 12t-39 21.5t-40.5 31.5z" />
<glyph unicode="&#xe8;" horiz-adv-x="1132" d="M171 398q0 -94 24 -171.5t70.5 -133.5t115.5 -87t158 -31q151 0 264 36t199 103l-88 125q-33 -29 -75.5 -53.5t-88.5 -42t-92.5 -27.5t-87.5 -10q-61 0 -105 22.5t-72.5 65t-42 103.5t-13.5 137v11t0.5 17t1.5 17t2 11q83 1 169.5 6.5t167.5 19t152 37t124 61t84 90 t31 123.5q0 76 -26.5 128t-70.5 83.5t-101.5 45t-118.5 13.5q-132 0 -239 -57.5t-183 -154.5t-117.5 -223t-41.5 -264zM358 588q16 67 46 135t74.5 123t103 89.5t132.5 34.5q40 0 75.5 -9.5t62 -29.5t42 -50t15.5 -70q0 -46 -23.5 -80t-64.5 -58.5t-95.5 -40.5t-115.5 -25.5 t-126 -13.5t-126 -5zM535 1494l147 117l244 -346l-69 -59z" />
<glyph unicode="&#xe9;" horiz-adv-x="1132" d="M171 398q0 -94 24 -171.5t70.5 -133.5t115.5 -87t158 -31q151 0 264 36t199 103l-88 125q-33 -29 -75.5 -53.5t-88.5 -42t-92.5 -27.5t-87.5 -10q-61 0 -105 22.5t-72.5 65t-42 103.5t-13.5 137v11t0.5 17t1.5 17t2 11q83 1 169.5 6.5t167.5 19t152 37t124 61t84 90 t31 123.5q0 76 -26.5 128t-70.5 83.5t-101.5 45t-118.5 13.5q-132 0 -239 -57.5t-183 -154.5t-117.5 -223t-41.5 -264zM358 588q16 67 46 135t74.5 123t103 89.5t132.5 34.5q40 0 75.5 -9.5t62 -29.5t42 -50t15.5 -70q0 -46 -23.5 -80t-64.5 -58.5t-95.5 -40.5t-115.5 -25.5 t-126 -13.5t-126 -5zM659 1267l366 345l95 -125l-411 -280z" />
<glyph unicode="&#xea;" horiz-adv-x="1132" d="M171 398q0 -94 24 -171.5t70.5 -133.5t115.5 -87t158 -31q151 0 264 36t199 103l-88 125q-33 -29 -75.5 -53.5t-88.5 -42t-92.5 -27.5t-87.5 -10q-61 0 -105 22.5t-72.5 65t-42 103.5t-13.5 137v11t0.5 17t1.5 17t2 11q83 1 169.5 6.5t167.5 19t152 37t124 61t84 90 t31 123.5q0 76 -26.5 128t-70.5 83.5t-101.5 45t-118.5 13.5q-132 0 -239 -57.5t-183 -154.5t-117.5 -223t-41.5 -264zM358 588q16 67 46 135t74.5 123t103 89.5t132.5 34.5q40 0 75.5 -9.5t62 -29.5t42 -50t15.5 -70q0 -46 -23.5 -80t-64.5 -58.5t-95.5 -40.5t-115.5 -25.5 t-126 -13.5t-126 -5zM452 1242l354 337h68l238 -338l-71 -60l-231 223l-308 -223z" />
<glyph unicode="&#xeb;" horiz-adv-x="1132" d="M171 398q0 -94 24 -171.5t70.5 -133.5t115.5 -87t158 -31q151 0 264 36t199 103l-88 125q-33 -29 -75.5 -53.5t-88.5 -42t-92.5 -27.5t-87.5 -10q-61 0 -105 22.5t-72.5 65t-42 103.5t-13.5 137v11t0.5 17t1.5 17t2 11q83 1 169.5 6.5t167.5 19t152 37t124 61t84 90 t31 123.5q0 76 -26.5 128t-70.5 83.5t-101.5 45t-118.5 13.5q-132 0 -239 -57.5t-183 -154.5t-117.5 -223t-41.5 -264zM358 588q16 67 46 135t74.5 123t103 89.5t132.5 34.5q40 0 75.5 -9.5t62 -29.5t42 -50t15.5 -70q0 -46 -23.5 -80t-64.5 -58.5t-95.5 -40.5t-115.5 -25.5 t-126 -13.5t-126 -5zM501 1305q7 40 39 66t71 26q41 0 62 -28t15 -66q-4 -20 -14 -37.5t-24 -30.5t-32.5 -21t-38.5 -8t-36 8.5t-26 22.5t-14.5 31.5t-1.5 36.5zM956 1305q7 40 39 66t72 26q41 0 62 -28t15 -66q-4 -20 -14 -37.5t-24 -30.5t-32.5 -21t-39.5 -8 q-20 0 -36 8.5t-26 22.5t-14.5 31.5t-1.5 36.5z" />
<glyph unicode="&#xec;" horiz-adv-x="474" d="M160 0l187 1080h158l-187 -1080h-158zM186 1494l147 117l244 -346l-69 -59z" />
<glyph unicode="&#xed;" horiz-adv-x="476" d="M160 0l187 1080h158l-187 -1080h-158zM332 1267l366 345l95 -125l-411 -280z" />
<glyph unicode="&#xee;" horiz-adv-x="476" d="M111 1170l354 337h68l238 -338l-71 -60l-231 223l-308 -223zM160 0l187 1080h158l-187 -1080h-158z" />
<glyph unicode="&#xef;" horiz-adv-x="474" d="M146 1305q7 40 39 66t71 26q41 0 62 -28t15 -66q-4 -20 -14 -37.5t-24 -30.5t-32.5 -21t-38.5 -8t-36 8.5t-26 22.5t-14.5 31.5t-1.5 36.5zM160 0l187 1080h158l-187 -1080h-158zM601 1305q7 40 39 66t72 26q41 0 62 -28t15 -66q-4 -20 -14 -37.5t-24 -30.5t-32.5 -21 t-39.5 -8q-20 0 -36 8.5t-26 22.5t-14.5 31.5t-1.5 36.5z" />
<glyph unicode="&#xf0;" horiz-adv-x="1210" d="M193.5 307.5q-18.5 103.5 3.5 232.5q24 136 80 235t133.5 164t171 96.5t191.5 31.5q44 0 79.5 -4t66 -15t57.5 -30t55 -48q1 43 -3.5 85t-18.5 84t-38.5 85.5t-62.5 88.5l-256 -138l-41 84l233 119q-19 18 -37.5 31t-38 23.5t-42 19t-48.5 17.5l75 118q26 -11 58 -27 t63 -34.5t59 -38.5t47 -38l202 109l37 -86l-185 -93q50 -60 81.5 -128.5t49.5 -141t24 -146.5t4 -144.5t-9 -135.5t-17 -119q-23 -137 -74 -245.5t-123.5 -183.5t-165 -115t-200.5 -40q-113 0 -198.5 39.5t-139.5 112t-72.5 176zM360 373.5q10 -82.5 44 -141t89 -91 t129 -32.5q70 0 131.5 33t111 93t84.5 144.5t53 188.5q12 66 2.5 131.5t-40 117.5t-82 84.5t-125.5 32.5q-66 0 -128.5 -20.5t-114.5 -65.5t-90.5 -116.5t-56.5 -174.5q-17 -101 -7 -183.5z" />
<glyph unicode="&#xf1;" horiz-adv-x="1129" d="M155 0l163 941q6 37 11 76.5t5 66.5h153q0 -10 -0.5 -23.5t-1.5 -27.5t-2 -27t-2 -22q41 23 87 43.5t96 36t101.5 24.5t102.5 9q79 0 137 -24t92.5 -68t45.5 -107.5t-2 -142.5l-131 -755h-158l128 742q10 57 1.5 99.5t-30 70.5t-54.5 42t-72 14q-44 0 -91.5 -7 t-94.5 -20.5t-91.5 -32t-84.5 -40.5l-150 -868h-158zM448 1245q16 37 44 72.5t63.5 63.5t76.5 45t83 17q46 0 75.5 -17.5t52.5 -39t44.5 -39t52.5 -17.5q36 0 75 17.5t67 58.5l10 16t11 17l72 -42q-19 -38 -44.5 -72.5t-59 -61.5t-73 -43t-84.5 -16q-38 0 -66 18t-53 39 t-50.5 39t-56.5 18q-35 0 -72.5 -17t-63.5 -52q-8 -11 -13 -19t-16 -24z" />
<glyph unicode="&#xf2;" horiz-adv-x="1242" d="M216 555q40 232 206 387t397 155q236 0 336.5 -161t58.5 -401q-39 -228 -202.5 -390.5t-381.5 -162.5q-254 0 -356.5 157t-57.5 416zM378 536q-29 -166 18.5 -258t105 -130.5t143.5 -38.5q83 0 152 39t148 141t110 277q26 153 -36.5 278.5t-225.5 125.5t-272.5 -120 t-142.5 -314zM560 1494l147 117l244 -346l-69 -59z" />
<glyph unicode="&#xf3;" horiz-adv-x="1242" d="M216 555q40 232 206 387t397 155q236 0 336.5 -161t58.5 -401q-39 -228 -202.5 -390.5t-381.5 -162.5q-254 0 -356.5 157t-57.5 416zM378 536q-29 -166 18.5 -258t105 -130.5t143.5 -38.5q83 0 152 39t148 141t110 277q26 153 -36.5 278.5t-225.5 125.5t-272.5 -120 t-142.5 -314zM714 1267l366 345l95 -125l-411 -280z" />
<glyph unicode="&#xf4;" horiz-adv-x="1242" d="M216 555q40 232 206 387t397 155q236 0 336.5 -161t58.5 -401q-39 -228 -202.5 -390.5t-381.5 -162.5q-254 0 -356.5 157t-57.5 416zM378 536q-29 -166 18.5 -258t105 -130.5t143.5 -38.5q83 0 152 39t148 141t110 277q26 153 -36.5 278.5t-225.5 125.5t-272.5 -120 t-142.5 -314zM513 1231l354 337h68l238 -338l-71 -60l-231 223l-308 -223z" />
<glyph unicode="&#xf5;" horiz-adv-x="1242" d="M216 555q40 232 206 387t397 155q236 0 336.5 -161t58.5 -401q-39 -228 -202.5 -390.5t-381.5 -162.5q-254 0 -356.5 157t-57.5 416zM378 536q-29 -166 18.5 -258t105 -130.5t143.5 -38.5q83 0 152 39t148 141t110 277q26 153 -36.5 278.5t-225.5 125.5t-272.5 -120 t-142.5 -314zM487 1245q16 37 44 72.5t63.5 63.5t76.5 45t83 17q46 0 75.5 -17.5t52.5 -39t44.5 -39t52.5 -17.5q36 0 75 17.5t67 58.5l10 16t11 17l72 -42q-19 -38 -44.5 -72.5t-59 -61.5t-73 -43t-84.5 -16q-38 0 -66 18t-53 39t-50.5 39t-56.5 18q-35 0 -72.5 -17 t-63.5 -52q-8 -11 -13 -19t-16 -24z" />
<glyph unicode="&#xf6;" horiz-adv-x="1242" d="M216 555q40 232 206 387t397 155q236 0 336.5 -161t58.5 -401q-39 -228 -202.5 -390.5t-381.5 -162.5q-254 0 -356.5 157t-57.5 416zM378 536q-29 -166 18.5 -258t105 -130.5t143.5 -38.5q83 0 152 39t148 141t110 277q26 153 -36.5 278.5t-225.5 125.5t-272.5 -120 t-142.5 -314zM528 1305q7 40 39 66t71 26q41 0 62 -28t15 -66q-4 -20 -14 -37.5t-24 -30.5t-32.5 -21t-38.5 -8t-36 8.5t-26 22.5t-14.5 31.5t-1.5 36.5zM983 1305q7 40 39 66t72 26q41 0 62 -28t15 -66q-4 -20 -14 -37.5t-24 -30.5t-32.5 -21t-39.5 -8q-20 0 -36 8.5 t-26 22.5t-14.5 31.5t-1.5 36.5z" />
<glyph unicode="&#xf7;" horiz-adv-x="1114" d="M197 571l26 150h912l-26 -150h-912zM500 324q4 25 17 46.5t31 37.5t40 25t45 9t41.5 -9t30.5 -25t16.5 -37.5t0.5 -46.5q-4 -24 -16.5 -45.5t-29.5 -37.5t-39 -25.5t-45 -9.5t-41.5 9.5t-31.5 25.5t-18 37.5t-1 45.5zM611 960q5 25 17.5 46.5t31 37.5t40.5 25t45 9 t41.5 -9t30 -25t16.5 -37.5t0 -46.5q-4 -24 -16 -45.5t-29.5 -37.5t-39 -25.5t-44.5 -9.5t-42 9.5t-31.5 25.5t-18 37.5t-1.5 45.5z" />
<glyph unicode="&#xf8;" horiz-adv-x="1200" d="M76 -13l167 170q-47 75 -58.5 176.5t10.5 227.5q12 67 37.5 133.5t64.5 127t90.5 112t114 90t135.5 60t157 21.5q86 0 152.5 -22t115.5 -64l130 138l84 -80l-138 -146q45 -76 56.5 -176t-8.5 -215t-72.5 -216t-129 -176.5t-173.5 -119.5t-206 -44q-92 0 -162.5 22.5 t-123.5 64.5l-159 -164zM348.5 414.5q5.5 -62.5 27.5 -116.5l572 601q-32 31 -77 49t-105 18q-84 0 -153 -32.5t-121 -90t-87 -135.5t-51 -168q-11 -63 -5.5 -125.5zM439 196q32 -34 77 -53.5t106 -19.5q81 0 149 38t120.5 100t87 142.5t48.5 164.5q11 63 7.5 122t-23.5 107 z" />
<glyph unicode="&#xf9;" horiz-adv-x="1127" d="M158 191.5q-8 62.5 4 135.5l131 753h158l-129 -741q-9 -54 1 -94.5t33 -67t56 -40t70 -13.5q103 0 189 28.5t171 85.5l146 842h158l-163 -939q-11 -65 -10 -141h-161q-1 9 0 22.5t1.5 29.5t2 32t3.5 28q-54 -32 -103 -56t-96 -40t-94.5 -24.5t-98.5 -8.5 q-85 0 -141.5 26.5t-88 73t-39.5 109zM567 1494l147 117l244 -346l-69 -59z" />
<glyph unicode="&#xfa;" horiz-adv-x="1127" d="M158 191.5q-8 62.5 4 135.5l131 753h158l-129 -741q-9 -54 1 -94.5t33 -67t56 -40t70 -13.5q103 0 189 28.5t171 85.5l146 842h158l-163 -939q-11 -65 -10 -141h-161q-1 9 0 22.5t1.5 29.5t2 32t3.5 28q-54 -32 -103 -56t-96 -40t-94.5 -24.5t-98.5 -8.5 q-85 0 -141.5 26.5t-88 73t-39.5 109zM556 1267l366 345l95 -125l-411 -280z" />
<glyph unicode="&#xfb;" horiz-adv-x="1127" d="M158 191.5q-8 62.5 4 135.5l131 753h158l-129 -741q-9 -54 1 -94.5t33 -67t56 -40t70 -13.5q103 0 189 28.5t171 85.5l146 842h158l-163 -939q-11 -65 -10 -141h-161q-1 9 0 22.5t1.5 29.5t2 32t3.5 28q-54 -32 -103 -56t-96 -40t-94.5 -24.5t-98.5 -8.5 q-85 0 -141.5 26.5t-88 73t-39.5 109zM429 1267l354 337h68l238 -338l-71 -60l-231 223l-308 -223z" />
<glyph unicode="&#xfc;" horiz-adv-x="1127" d="M158 191.5q-8 62.5 4 135.5l131 753h158l-129 -741q-9 -54 1 -94.5t33 -67t56 -40t70 -13.5q103 0 189 28.5t171 85.5l146 842h158l-163 -939q-11 -65 -10 -141h-161q-1 9 0 22.5t1.5 29.5t2 32t3.5 28q-54 -32 -103 -56t-96 -40t-94.5 -24.5t-98.5 -8.5 q-85 0 -141.5 26.5t-88 73t-39.5 109zM463 1305q7 40 39 66t71 26q41 0 62 -28t15 -66q-4 -20 -14 -37.5t-24 -30.5t-32.5 -21t-38.5 -8t-36 8.5t-26 22.5t-14.5 31.5t-1.5 36.5zM918 1305q7 40 39 66t72 26q41 0 62 -28t15 -66q-4 -20 -14 -37.5t-24 -30.5t-32.5 -21 t-39.5 -8q-20 0 -36 8.5t-26 22.5t-14.5 31.5t-1.5 36.5z" />
<glyph unicode="&#xfd;" horiz-adv-x="1020" d="M-186 -444l56 151q55 -25 122 -25q63 0 109.5 19.5t85 56.5t72.5 91t72 123q21 35 44 99l-231 1009h170l177 -864l434 864h171l-633 -1162q-52 -93 -102 -163t-105 -118.5t-123 -74t-161 -25.5q-72 0 -158 19zM578 1267l366 345l95 -125l-411 -280z" />
<glyph unicode="&#xfe;" horiz-adv-x="1129" d="M67 -453l241 1387l110 633h158l-96 -552q47 19 90 34.5t84 26t81.5 16t83.5 5.5q106 0 177 -42t111 -116t48 -175.5t-12 -220.5q-19 -107 -65 -208t-115 -179.5t-158.5 -126t-194.5 -47.5q-47 0 -84 3.5t-70.5 12t-67.5 23.5t-73 39l-89 -513h-159zM339 202 q30 -26 63.5 -42.5t69.5 -25.5t74.5 -12.5t79.5 -3.5q72 0 130.5 35.5t102.5 95t74 136.5t44 161q15 87 12 163t-29 132t-76 88.5t-130 32.5q-36 0 -71.5 -3t-71.5 -10.5t-73.5 -20.5t-78.5 -34z" />
<glyph unicode="&#xff;" horiz-adv-x="1039" d="M-186 -444l56 151q55 -25 122 -25q63 0 109.5 19.5t85 56.5t72.5 91t72 123q21 35 44 99l-231 1009h170l177 -864l434 864h171l-633 -1162q-52 -93 -102 -163t-105 -118.5t-123 -74t-161 -25.5q-72 0 -158 19zM427 1305q7 40 39 66t71 26q41 0 62 -28t15 -66 q-4 -20 -14 -37.5t-24 -30.5t-32.5 -21t-38.5 -8t-36 8.5t-26 22.5t-14.5 31.5t-1.5 36.5zM882 1305q7 40 39 66t72 26q41 0 62 -28t15 -66q-4 -20 -14 -37.5t-24 -30.5t-32.5 -21t-39.5 -8q-20 0 -36 8.5t-26 22.5t-14.5 31.5t-1.5 36.5z" />
<glyph unicode="&#x152;" horiz-adv-x="1990" d="M252.5 458q-17.5 150 14.5 335q21 119 63.5 225.5t102.5 197t135.5 163.5t161 123.5t180 78t193.5 27.5q36 0 66.5 -3t59 -8t56 -12.5t56.5 -17.5h829l-24 -138h-680l-94 -539h544l-23 -131h-544l-108 -621h709l-23 -138h-861q-51 -8 -114.5 -14t-149.5 -6 q-165 0 -281.5 57.5t-183.5 164t-84.5 256.5zM435.5 529.5q13.5 -125.5 62 -216.5t132.5 -141t199 -50q78 0 137 10.5t110 32.5l218 1253q-45 19 -95 32.5t-124 13.5q-106 0 -207 -46.5t-185.5 -132t-146 -207t-87.5 -271.5q-27 -152 -13.5 -277.5z" />
<glyph unicode="&#x153;" horiz-adv-x="1945" d="M190.5 321q-12.5 106 9.5 237q18 100 65 196.5t122.5 172.5t177.5 123t229 47q75 0 135 -15.5t105.5 -44t77.5 -69t53 -89.5q36 48 78 88t92.5 69t110.5 45t132 16q126 0 203.5 -38.5t116 -110t42 -172.5t-18.5 -226l-734 -1q-16 -92 -8 -171t38 -138t80.5 -92.5 t119.5 -33.5q47 0 91.5 7t88 26t88 53t91.5 87l98 -92q-62 -66 -120.5 -107t-115.5 -64.5t-115.5 -32t-119.5 -8.5q-76 0 -134.5 17t-101.5 48t-71.5 74t-45.5 95q-39 -52 -88 -95t-106.5 -74t-121 -48t-131.5 -17q-127 0 -214 41t-136.5 116t-62 181zM355.5 385 q6.5 -76 37.5 -137t87 -99.5t141 -38.5q81 0 148.5 38.5t119.5 102.5t87.5 145.5t50.5 168.5q14 82 5.5 155.5t-40 129t-87.5 88t-137 32.5q-85 0 -153.5 -33t-118.5 -90.5t-84 -137t-50 -172.5q-13 -76 -6.5 -152zM1208 655h565q8 62 2.5 119t-29.5 100.5t-69 69.5t-116 26 q-75 0 -133.5 -27.5t-101.5 -71.5t-72.5 -101t-45.5 -115z" />
<glyph unicode="&#x178;" d="M319 1567h184l241 -704l488 704h184l-610 -835l-127 -732h-172l124 715zM573 1750q7 40 39 66t71 26q41 0 62 -28t15 -66q-4 -20 -14 -37.5t-24 -30.5t-32.5 -21t-38.5 -8t-36 8.5t-26 22.5t-14.5 31.5t-1.5 36.5zM1028 1750q7 40 39 66t72 26q41 0 62 -28t15 -66 q-4 -20 -14 -37.5t-24 -30.5t-32.5 -21t-39.5 -8q-20 0 -36 8.5t-26 22.5t-14.5 31.5t-1.5 36.5z" />
<glyph unicode="&#x2c6;" horiz-adv-x="0" d="M-110 1267l354 337h68l238 -338l-71 -60l-231 223l-308 -223z" />
<glyph unicode="&#x2dc;" horiz-adv-x="0" d="M-136 1245q16 37 44 72.5t63.5 63.5t76.5 45t83 17q46 0 75.5 -17.5t52.5 -39t44.5 -39t52.5 -17.5q36 0 75 17.5t67 58.5l10 16t11 17l72 -42q-19 -38 -44.5 -72.5t-59 -61.5t-73 -43t-84.5 -16q-38 0 -66 18t-53 39t-50.5 39t-56.5 18q-35 0 -72.5 -17t-63.5 -52 q-8 -11 -13 -19t-16 -24z" />
<glyph unicode="&#x2000;" horiz-adv-x="1042" />
<glyph unicode="&#x2001;" horiz-adv-x="2084" />
<glyph unicode="&#x2002;" horiz-adv-x="1042" />
<glyph unicode="&#x2003;" horiz-adv-x="2084" />
<glyph unicode="&#x2004;" horiz-adv-x="694" />
<glyph unicode="&#x2005;" horiz-adv-x="521" />
<glyph unicode="&#x2006;" horiz-adv-x="347" />
<glyph unicode="&#x2007;" horiz-adv-x="347" />
<glyph unicode="&#x2008;" horiz-adv-x="260" />
<glyph unicode="&#x2009;" horiz-adv-x="416" />
<glyph unicode="&#x200a;" horiz-adv-x="115" />
<glyph unicode="&#x2010;" horiz-adv-x="748" d="M221 665l46 123h526l-46 -123h-526z" />
<glyph unicode="&#x2011;" horiz-adv-x="748" d="M221 665l46 123h526l-46 -123h-526z" />
<glyph unicode="&#x2012;" horiz-adv-x="748" d="M221 665l46 123h526l-46 -123h-526z" />
<glyph unicode="&#x2013;" horiz-adv-x="912" d="M99 571l22 130h912l-22 -130h-912z" />
<glyph unicode="&#x2014;" horiz-adv-x="1792" d="M99 571l22 130h1792l-22 -130h-1792z" />
<glyph unicode="&#x2018;" horiz-adv-x="409" d="M302.5 1340q-4.5 30 0.5 58q12 69 40 120t67.5 90t88 68t100.5 55l35 -59q-39 -23 -73 -45t-60 -46t-43.5 -52t-23.5 -64q-2 -11 -2 -21.5t1 -22.5q7 5 25 11t38 6q43 0 60.5 -29t10.5 -70q-4 -23 -16.5 -43t-31 -35t-40.5 -23.5t-46 -8.5q-41 0 -68.5 16t-42.5 40.5 t-19.5 54.5z" />
<glyph unicode="&#x2019;" horiz-adv-x="409" d="M288 1289q39 23 73 45t60 46t43.5 52t23.5 64q2 11 2 21.5t-1 22.5q-7 -5 -25 -11t-38 -6q-43 0 -60 29t-10 70q4 22 16.5 42t30.5 35t40.5 24t45.5 9q41 0 68.5 -16t42.5 -40.5t19.5 -54.5t-0.5 -58q-12 -69 -40 -120t-67 -90t-88 -68.5t-101 -54.5z" />
<glyph unicode="&#x201a;" horiz-adv-x="502" d="M72 -244q39 22 73 44t60 46.5t43.5 52.5t23.5 64q2 11 2 21.5t-1 22.5q-7 -5 -25 -11t-38 -6q-43 0 -60.5 29t-10.5 70q4 22 16.5 42t31 35t40.5 24t46 9q41 0 68 -16t42.5 -41t20 -54.5t-0.5 -57.5q-12 -69 -40 -120t-68 -90t-88 -68.5t-100 -55.5z" />
<glyph unicode="&#x201c;" horiz-adv-x="814" d="M302.5 1340q-4.5 30 0.5 58q12 69 40 120t67.5 90t88 68t100.5 55l35 -59q-39 -23 -73 -45t-60 -46t-43.5 -52t-23.5 -64q-2 -11 -2 -21.5t1 -22.5q7 5 25 11t38 6q43 0 60.5 -29t10.5 -70q-4 -23 -16.5 -43t-31 -35t-40.5 -23.5t-46 -8.5q-41 0 -68.5 16t-42.5 40.5 t-19.5 54.5zM674.5 1340q-4.5 30 0.5 58q12 69 40 120t67.5 90t88 68t100.5 55l35 -59q-39 -23 -73 -45t-60 -46t-43.5 -52t-23.5 -64q-2 -11 -2 -21.5t1 -22.5q7 5 25 11t38 6q43 0 60.5 -29t10.5 -70q-4 -23 -16.5 -43t-31 -35t-40.5 -23.5t-46 -8.5q-41 0 -68.5 16 t-42.5 40.5t-19.5 54.5z" />
<glyph unicode="&#x201d;" horiz-adv-x="833" d="M288 1289q39 23 73 45t60 46t43.5 52t23.5 64q2 11 2 21.5t-1 22.5q-7 -5 -25 -11t-38 -6q-43 0 -60 29t-10 70q4 22 16.5 42t30.5 35t40.5 24t45.5 9q41 0 68.5 -16t42.5 -40.5t19.5 -54.5t-0.5 -58q-12 -69 -40 -120t-67 -90t-88 -68.5t-101 -54.5zM669 1289 q39 23 73 45t60 46t43.5 52t23.5 64q2 11 2 21.5t-1 22.5q-7 -5 -25 -11t-38 -6q-43 0 -60 29t-10 70q4 22 16.5 42t30.5 35t40.5 24t45.5 9q41 0 68.5 -16t42.5 -40.5t19.5 -54.5t-0.5 -58q-12 -69 -40 -120t-67 -90t-88 -68.5t-101 -54.5z" />
<glyph unicode="&#x201e;" horiz-adv-x="986" d="M72 -244q39 22 73 44t60 46.5t43.5 52.5t23.5 64q2 11 2 21.5t-1 22.5q-7 -5 -25 -11t-38 -6q-43 0 -60.5 29t-10.5 70q4 22 16.5 42t31 35t40.5 24t46 9q41 0 68 -16t42.5 -41t20 -54.5t-0.5 -57.5q-12 -69 -40 -120t-68 -90t-88 -68.5t-100 -55.5zM555 -244 q39 22 73 44t60 46.5t43.5 52.5t23.5 64q2 11 2 21.5t-1 22.5q-7 -5 -25 -11t-38 -6q-43 0 -60.5 29t-10.5 70q4 22 16.5 42t31 35t40.5 24t46 9q41 0 68 -16t42.5 -41t20 -54.5t-0.5 -57.5q-12 -69 -40 -120t-68 -90t-88 -68.5t-100 -55.5z" />
<glyph unicode="&#x2022;" horiz-adv-x="834" d="M409 673q5 26 19 49t34 40t44.5 27t50.5 10t47.5 -10t35.5 -27t20 -40t1 -49q-4 -26 -18 -49t-34 -40t-45 -27t-51 -10t-47 10t-35 27t-20 40t-2 49z" />
<glyph unicode="&#x2026;" horiz-adv-x="1589" d="M141 102q8 44 45.5 81t88.5 37q49 0 72.5 -37t15.5 -81q-8 -50 -47 -84t-82 -34q-45 0 -73 34t-20 84zM693 102q8 44 45.5 81t88.5 37q49 0 72.5 -37t15.5 -81q-8 -50 -47 -84t-82 -34q-45 0 -73 34t-20 84zM1253 102q8 44 45.5 81t88.5 37q49 0 72.5 -37t15.5 -81 q-8 -50 -47 -84t-82 -34q-45 0 -73 34t-20 84z" />
<glyph unicode="&#x202f;" horiz-adv-x="416" />
<glyph unicode="&#x2039;" horiz-adv-x="740" d="M173 533l2 12l467 437l75 -75l-352 -361l-1 -8l216 -360l-96 -75z" />
<glyph unicode="&#x203a;" horiz-adv-x="749" d="M220 178l342 360l1 8l-226 361l101 75l315 -437l-2 -12l-461 -430z" />
<glyph unicode="&#x205f;" horiz-adv-x="521" />
<glyph unicode="&#x20ac;" horiz-adv-x="1198" d="M177 674l19 114h118q6 33 11.5 60t11.5 50h-122l20 110h134q42 125 107 234.5t147.5 190.5t180.5 128t207 47q67 0 116 -6.5t90 -25t78.5 -53t80.5 -90.5l-113 -129q-42 51 -77 82t-68 48.5t-65.5 23.5t-69.5 6q-70 0 -134.5 -35t-121 -96.5t-102.5 -145t-77 -179.5h520 l-39 -110h-514q-6 -28 -11.5 -55.5t-9.5 -54.5h501l-38 -114h-475q-11 -120 -1.5 -221.5t40 -176t81 -116t122.5 -41.5q45 0 82.5 6.5t74 26t76 55t89.5 93.5l117 -88q-66 -75 -122.5 -121.5t-111.5 -72t-114 -34.5t-130 -9q-120 0 -200 57.5t-126 154.5t-60 223.5t0 263.5 h-122z" />
<glyph unicode="&#x2122;" horiz-adv-x="1903" d="M353 1414l27 153h939l177 -657l405 657h173l-157 -899h-160l100 575l-365 -575h-88l-156 574l-100 -574h-159l130 746h-300l-130 -746h-159l130 746h-307z" />
<glyph unicode="&#x25fc;" horiz-adv-x="1080" d="M0 0v1080h1080v-1080h-1080z" />
</font>
</defs>
</svg>
